<?xml version="1.0" standalone="no"?>
<!DOCTYPE svg PUBLIC "-//W3C//DTD SVG 1.1//EN" "http://www.w3.org/Graphics/SVG/1.1/DTD/svg11.dtd" >
<svg>
<metadata>
Created by FontForge 20090622 at Mon May 14 11:05:49 2018
 By deploy user
Copyright (c) 2016 by Jeremy Dooley. All rights reserved.
</metadata>
<defs>
<font id="Gineso-NorReg" horiz-adv-x="477" >
  <font-face 
    font-family="Gineso Norm Regular"
    font-weight="500"
    font-stretch="normal"
    units-per-em="1000"
    panose-1="0 0 0 0 0 0 0 0 0 0"
    ascent="800"
    descent="-200"
    x-height="540"
    cap-height="720"
    bbox="-85 -260 1340 981"
    underline-thickness="50"
    underline-position="-50"
    unicode-range="U+000D-U+F739"
  />
<missing-glyph horiz-adv-x="500" 
 />
    <glyph glyph-name=".notdef" horiz-adv-x="500" 
 />
    <glyph glyph-name=".null" horiz-adv-x="0" 
 />
    <glyph glyph-name="nonmarkingreturn" horiz-adv-x="333" 
 />
    <glyph glyph-name="NULL" horiz-adv-x="0" 
 />
    <glyph glyph-name="NULL" horiz-adv-x="0" 
 />
    <glyph glyph-name="CR" unicode="&#xd;" horiz-adv-x="197" 
 />
    <glyph glyph-name="space" unicode=" " horiz-adv-x="197" 
 />
    <glyph glyph-name="exclam" unicode="!" horiz-adv-x="220" 
d="M153 466l-17 -298h-51l-17 298v254h85v-254zM152 0h-83v111h83v-111z" />
    <glyph glyph-name="quotedbl" unicode="&#x22;" horiz-adv-x="322" 
d="M71 475l-25 245h96l-24 -245h-47zM205 475l-25 245h96l-24 -245h-47z" />
    <glyph glyph-name="numbersign" unicode="#" horiz-adv-x="580" 
d="M180 0h-62l24 209h-108v57h114l21 183h-104v57h111l24 214h61l-24 -214h141l24 214h61l-24 -214h106v-57h-113l-20 -183h103v-57h-110l-23 -209h-62l24 209h-141zM230 449l-20 -183h140l21 183h-141z" />
    <glyph glyph-name="dollar" unicode="$" horiz-adv-x="505" 
d="M244 -100h-34v90q-82 3 -122 37.5t-40 108.5v83h80v-61q0 -55 23 -75.5t76 -20.5h46q58 0 85 20t27 84v53q0 44 -21.5 69.5t-73.5 37.5l-97 21q-71 15 -102.5 51t-31.5 120v46q0 151 151 165v91h34v-90h25v90h33v-93q67 -9 104.5 -46t37.5 -97v-79h-79v63q0 93 -104 93
h-21q-53 0 -77 -23t-24 -80v-35q0 -53 15.5 -72.5t67.5 -31.5l91 -20q86 -20 119.5 -61t33.5 -120v-53q0 -163 -164 -174v-91h-33v90h-25v-90z" />
    <glyph glyph-name="percent" unicode="%" horiz-adv-x="1015" 
d="M346 617v-240q0 -54 -39.5 -84t-108.5 -30t-109 30t-40 84v240q0 54 40 84t109 30t108.5 -30t39.5 -84zM198 322q81 0 81 66v218q0 66 -81 66q-83 0 -83 -66v-218q0 -66 83 -66zM941 343v-240q0 -54 -39.5 -84t-108.5 -30t-109 30t-40 84v240q0 54 40 84t109 30
t108.5 -30t39.5 -84zM793 48q81 0 81 66v218q0 66 -81 66q-82 0 -82 -66v-218q0 -66 82 -66zM362 -20h-71l336 760h70z" />
    <glyph glyph-name="ampersand" unicode="&#x26;" horiz-adv-x="617" 
d="M590 411v-64h-115v-202q0 -155 -179 -155h-50q-96 0 -143.5 40.5t-47.5 133.5v90q0 100 90 130q-81 34 -81 124v66q0 77 47.5 116.5t134.5 39.5h34q89 0 137.5 -36t48.5 -103v-86h-78v71q0 44 -26 64.5t-82 20.5h-34q-102 0 -102 -93v-58q0 -99 119 -99h327zM133 252v-92
q0 -56 28.5 -78.5t85.5 -22.5h47q53 0 78 22t25 71v195h-155q-109 0 -109 -95z" />
    <glyph glyph-name="quotesingle" unicode="'" horiz-adv-x="188" 
d="M71 475l-25 245h96l-24 -245h-47z" />
    <glyph glyph-name="parenleft" unicode="(" horiz-adv-x="297" 
d="M132 283q0 -134 36 -235t112 -228h-88q-146 215 -146 463t146 463h88q-76 -127 -112 -228t-36 -235z" />
    <glyph glyph-name="parenright" unicode=")" horiz-adv-x="297" 
d="M165 283q0 134 -36 235t-112 228h88q146 -215 146 -463t-146 -463h-88q76 127 112 228t36 235z" />
    <glyph glyph-name="asterisk" unicode="*" horiz-adv-x="448" 
d="M51 588l36 63l122 -97l-22 155h73l-23 -156l124 98l37 -63l-147 -58l146 -58l-36 -63l-124 97l23 -155h-73l22 154l-122 -96l-37 63l146 58z" />
    <glyph glyph-name="plus" unicode="+" horiz-adv-x="475" 
d="M204 600h67v-165h165v-67h-165v-165h-67v165h-165v67h165v165z" />
    <glyph glyph-name="comma" unicode="," horiz-adv-x="205" 
d="M82 -102h-52l35 214h92z" />
    <glyph glyph-name="hyphen" unicode="-" horiz-adv-x="437" 
d="M380 392v-69h-324v69h324z" />
    <glyph glyph-name="period" unicode="." horiz-adv-x="195" 
d="M139 0h-83v111h83v-111z" />
    <glyph glyph-name="slash" unicode="/" horiz-adv-x="525" 
d="M104 -27h-87l406 774h85z" />
    <glyph glyph-name="zero" unicode="0" horiz-adv-x="520" 
d="M453 574v-428q0 -74 -51.5 -115t-141.5 -41t-142 41t-52 115v428q0 74 52 115t142 41t141.5 -41t51.5 -115zM260 61q55 0 84.5 26t29.5 69v408q0 43 -29.5 69t-84.5 26t-84.5 -26t-29.5 -69v-408q0 -43 29.5 -69t84.5 -26z" />
    <glyph glyph-name="one" unicode="1" horiz-adv-x="317" 
d="M242 0h-77v632l-127 -60v71l150 77h54v-720z" />
    <glyph glyph-name="two" unicode="2" horiz-adv-x="473" 
d="M428 68v-68h-378v37q-4 109 35.5 185.5t130.5 135.5q31 20 46.5 31.5t36.5 32.5t30 45.5t9 55.5v34q0 104 -94 104h-17q-45 0 -69.5 -23.5t-24.5 -66.5v-68h-78v81q0 70 45 108t127 38h18q84 0 128.5 -42.5t44.5 -124.5v-42q0 -74 -40.5 -122.5t-127.5 -105.5
q-69 -43 -96 -98t-30 -127h304z" />
    <glyph glyph-name="three" unicode="3" horiz-adv-x="485" 
d="M186 347v64h53q103 0 103 96v64q0 90 -89 90h-18q-97 0 -97 -82v-73h-72v85q0 67 44.5 103t125.5 36h17q168 0 168 -156v-66q0 -91 -85 -119q93 -27 93 -135v-90q0 -93 -43.5 -133.5t-132.5 -40.5h-44q-83 0 -123.5 34.5t-40.5 111.5v80h73v-64q0 -48 22.5 -69t70.5 -21
h39q51 0 76.5 22.5t25.5 78.5v89q0 95 -96 95h-70z" />
    <glyph glyph-name="four" unicode="4" horiz-adv-x="467" 
d="M358 0h-80v126h-254v38l168 556h80l-159 -527h165v113l23 88h57v-201h78v-67h-78v-126z" />
    <glyph glyph-name="five" unicode="5" horiz-adv-x="467" 
d="M401 720v-69h-243l-5 -212l89 1q175 1 175 -173v-103q0 -93 -43.5 -133.5t-130.5 -40.5h-31q-85 0 -126 36t-41 117v73h77v-47q0 -59 23 -83t68 -24h32q95 0 95 105v98q0 104 -99 104h-167l9 351h318z" />
    <glyph glyph-name="six" unicode="6" horiz-adv-x="504" 
d="M275 432q84 0 128 -39.5t44 -110.5v-135q0 -74 -51.5 -115.5t-141.5 -41.5q-89 0 -138 41t-49 115v428q0 74 51 115t140 41q87 0 138 -39.5t51 -109.5v-75h-80v57q0 95 -109 95q-110 0 -110 -102v-170q43 46 127 46zM148 164q0 -102 109 -102q110 0 110 102v97
q0 102 -104 102q-53 0 -83.5 -25t-31.5 -72v-102z" />
    <glyph glyph-name="seven" unicode="7" horiz-adv-x="412" 
d="M26 651v69h362v-56l-234 -664h-82l228 651h-274z" />
    <glyph glyph-name="eight" unicode="8" horiz-adv-x="503" 
d="M252 730q85 0 134 -39t49 -110v-73q0 -92 -80 -125q46 -18 70.5 -53t24.5 -82v-102q0 -74 -53 -115t-145 -41q-93 0 -146 41t-53 115v102q0 97 96 136q-80 33 -80 124v73q0 71 49 110t134 39zM252 352q-61 0 -89.5 -26t-28.5 -81v-84q0 -105 118 -105q117 0 117 105v84
q0 55 -28.5 81t-88.5 26zM252 664q-106 0 -106 -91v-69q0 -88 106 -88q105 0 105 88v69q0 91 -105 91z" />
    <glyph glyph-name="nine" unicode="9" horiz-adv-x="504" 
d="M229 288q-84 0 -128 39t-44 111v135q0 74 51 115.5t141 41.5q89 0 138.5 -41t49.5 -115v-428q0 -74 -51 -115t-141 -41q-87 0 -137.5 39.5t-50.5 109.5v75h80v-57q0 -95 108 -95q111 0 111 102v169q-44 -45 -127 -45zM241 357q53 0 83.5 24.5t31.5 72.5v102
q0 102 -109 102q-110 0 -110 -102v-97q0 -102 104 -102z" />
    <glyph glyph-name="colon" unicode=":" horiz-adv-x="209" 
d="M148 0h-83v111h83v-111zM148 394h-83v111h83v-111z" />
    <glyph glyph-name="semicolon" unicode=";" horiz-adv-x="234" 
d="M169 394h-83v111h83v-111zM97 -102h-52l35 214h92z" />
    <glyph glyph-name="less" unicode="&#x3c;" horiz-adv-x="389" 
d="M28 277v65l228 278h96l-258 -310l258 -310h-96z" />
    <glyph glyph-name="equal" unicode="=" horiz-adv-x="449" 
d="M387 407v-69h-324v69h324zM387 207v-69h-324v69h324z" />
    <glyph glyph-name="greater" unicode="&#x3e;" horiz-adv-x="389" 
d="M361 342v-65l-228 -277h-96l258 310l-258 310h96z" />
    <glyph glyph-name="question" unicode="?" horiz-adv-x="485" 
d="M242 137h-76v123q0 49 21 75.5t74 45.5q49 18 66.5 39.5t17.5 60.5v85q0 98 -101 98h-18q-47 0 -74.5 -24t-27.5 -74v-71h-77v88q0 71 49 109t130 38h18q82 0 130.5 -37.5t48.5 -108.5v-117q0 -59 -24 -85.5t-91 -53.5q-40 -15 -53 -35t-13 -50v-106zM246 0h-83v111h83
v-111z" />
    <glyph glyph-name="at" unicode="@" horiz-adv-x="751" 
d="M577 209q23 0 37.5 11.5t14.5 29.5v320q0 94 -132 94h-233q-130 0 -130 -94v-435q0 -94 130 -94h389v-57h-399q-87 0 -136.5 37t-49.5 105v453q0 68 49.5 105t136.5 37h253q88 0 138 -37t50 -105v-338q0 -44 -32 -67t-89 -23q-76 0 -102 44q-50 -44 -122 -44
q-65 0 -100.5 39t-35.5 100v116q0 63 35 101t100 38q64 0 113 -35v28h69v-288q0 -19 12 -30t34 -11zM362 214q63 0 100 42v191q-29 35 -100 35q-76 0 -76 -81v-106q0 -43 18.5 -62t57.5 -19z" />
    <glyph glyph-name="A" unicode="A" horiz-adv-x="549" 
d="M96 0h-81l214 720h91l214 -720h-81l-49 171h-259zM275 627l-110 -385h219z" />
    <glyph glyph-name="B" unicode="B" horiz-adv-x="530" 
d="M269 0h-193v720h177q96 0 149 -40.5t53 -123.5v-40q0 -90 -89 -122q119 -29 119 -148v-66q0 -90 -57 -135t-159 -45zM269 354h-112v-289h112q64 0 99.5 31t35.5 92v56q0 55 -35.5 82.5t-99.5 27.5zM253 654h-96v-237h96q121 0 121 102v27q0 108 -121 108z" />
    <glyph glyph-name="C" unicode="C" horiz-adv-x="553" 
d="M149 164q0 -54 32 -78t101 -24q134 0 134 102v96h76v-114q0 -74 -57.5 -115t-155.5 -41t-154.5 41t-56.5 115v428q0 74 57.5 115t156.5 41q98 0 154 -41t56 -115v-114h-76v96q0 50 -36 76t-98 26q-133 0 -133 -102v-392z" />
    <glyph glyph-name="D" unicode="D" horiz-adv-x="562" 
d="M76 0v720h165q135 0 196 -56.5t61 -172.5v-262q0 -117 -59 -173t-191 -56h-172zM241 651h-84v-582h91q172 0 172 162v258q0 85 -42.5 123.5t-136.5 38.5z" />
    <glyph glyph-name="E" unicode="E" horiz-adv-x="471" 
d="M431 68v-68h-355v720h355v-69h-274v-244h215v-69h-215v-270h274z" />
    <glyph glyph-name="F" unicode="F" horiz-adv-x="454" 
d="M157 0h-81v720h355v-69h-274v-274h215v-69h-215v-308z" />
    <glyph glyph-name="G" unicode="G" horiz-adv-x="560" 
d="M499 0h-43l-17 53q-51 -63 -163 -63q-97 0 -152.5 41t-55.5 115v428q0 74 58 115t159 41q99 0 156.5 -41.5t57.5 -114.5v-114h-78v96q0 50 -36 76t-100 26q-136 0 -136 -102v-387q0 -55 33 -81t103 -26q64 0 100 27t36 80v116h-136v69h214v-354z" />
    <glyph glyph-name="H" unicode="H" horiz-adv-x="574" 
d="M157 0h-81v720h81v-313h260v313h81v-720h-81v338h-260v-338z" />
    <glyph glyph-name="I" unicode="I" horiz-adv-x="233" 
d="M157 0h-81v720h81v-720z" />
    <glyph glyph-name="J" unicode="J" horiz-adv-x="512" 
d="M359 720h81v-549q0 -89 -53.5 -135t-152.5 -46q-93 0 -147.5 41t-54.5 115v113h78v-93q0 -52 32.5 -78t91.5 -26q125 0 125 112v546z" />
    <glyph glyph-name="K" unicode="K" horiz-adv-x="503" 
d="M157 0h-81v720h81v-332l236 332h87l-245 -348l260 -372h-93l-245 348v-348z" />
    <glyph glyph-name="L" unicode="L" horiz-adv-x="434" 
d="M417 68v-68h-341v720h81v-652h260z" />
    <glyph glyph-name="M" unicode="M" horiz-adv-x="715" 
d="M386 249h-57l-178 338l3 -60v-527h-78v720h84l197 -374l198 374h84v-720h-78v526l3 59z" />
    <glyph glyph-name="N" unicode="N" horiz-adv-x="597" 
d="M521 0h-65l-307 544l2 -27v-517h-75v720h65l306 -545l-1 36v509h75v-720z" />
    <glyph glyph-name="O" unicode="O" horiz-adv-x="570" 
d="M285 730q103 0 160 -43.5t57 -122.5v-408q0 -79 -57 -122.5t-160 -43.5t-160 43.5t-57 122.5v408q0 79 57 122.5t160 43.5zM285 658q-71 0 -103.5 -28t-32.5 -91v-358q0 -63 32.5 -91t103.5 -28t103.5 28t32.5 91v358q0 63 -32.5 91t-103.5 28z" />
    <glyph glyph-name="P" unicode="P" horiz-adv-x="500" 
d="M157 0h-81v720h163q117 0 170 -50t53 -146v-59q0 -90 -52.5 -136.5t-170.5 -46.5h-82v-282zM244 651h-87v-301h83q73 0 107 29t34 94v47q0 68 -33.5 99.5t-103.5 31.5z" />
    <glyph glyph-name="Q" unicode="Q" horiz-adv-x="570" 
d="M285 730q103 0 160 -43.5t57 -122.5v-408q0 -60 -34.5 -100.5t-97.5 -55.5l103 -126l-55 -46l-132 162h-1q-103 0 -160 43.5t-57 122.5v408q0 79 57 122.5t160 43.5zM285 658q-71 0 -103.5 -28t-32.5 -91v-358q0 -63 32.5 -91t103.5 -28t103.5 28t32.5 91v358
q0 63 -32.5 91t-103.5 28z" />
    <glyph glyph-name="R" unicode="R" horiz-adv-x="516" 
d="M157 0h-81v720h157q117 0 170 -50t53 -146v-59q0 -140 -126 -172l173 -293h-91l-163 282h-92v-282zM238 651h-81v-301h77q73 0 107 29t34 94v47q0 68 -33.5 99.5t-103.5 31.5z" />
    <glyph glyph-name="S" unicode="S" horiz-adv-x="512" 
d="M467 218v-53q0 -175 -189 -175h-52q-89 0 -133 34.5t-44 111.5v83h80v-61q0 -55 23 -75.5t76 -20.5h46q58 0 85 20t27 84v53q0 44 -21.5 69.5t-73.5 37.5l-97 21q-71 15 -102.5 51t-31.5 120v46q0 82 45.5 124t132.5 42h23q86 0 135 -38.5t49 -107.5v-79h-79v63
q0 93 -104 93h-21q-53 0 -77 -23t-24 -80v-35q0 -53 15.5 -72.5t67.5 -31.5l91 -20q86 -20 119.5 -61t33.5 -120z" />
    <glyph glyph-name="T" unicode="T" horiz-adv-x="453" 
d="M268 0h-81v651h-170v69h419v-69h-168v-651z" />
    <glyph glyph-name="U" unicode="U" horiz-adv-x="579" 
d="M425 720h81v-562q0 -79 -58 -123.5t-159 -44.5q-100 0 -158.5 44.5t-58.5 123.5v562h81v-540q0 -118 136 -118t136 118v540z" />
    <glyph glyph-name="V" unicode="V" horiz-adv-x="525" 
d="M417 720h82l-193 -720h-87l-193 720h82l154 -615z" />
    <glyph glyph-name="W" unicode="W" horiz-adv-x="811" 
d="M702 720h80l-146 -720h-99l-132 607l-131 -607h-98l-147 720h80l119 -636l137 636h81l137 -634z" />
    <glyph glyph-name="X" unicode="X" horiz-adv-x="504" 
d="M32 720h86l134 -293l134 293h86l-170 -354l193 -366h-88l-155 307l-155 -307h-87l192 365z" />
    <glyph glyph-name="Y" unicode="Y" horiz-adv-x="523" 
d="M302 0h-81v262l-199 458h86l153 -376l153 376h86l-198 -458v-262z" />
    <glyph glyph-name="Z" unicode="Z" horiz-adv-x="475" 
d="M26 53l314 598h-297v69h394v-53l-313 -599h321v-68h-419v53z" />
    <glyph glyph-name="bracketleft" unicode="[" horiz-adv-x="254" 
d="M215 -67v-68h-143v855h143v-69h-69v-718h69z" />
    <glyph glyph-name="backslash" unicode="\" horiz-adv-x="525" 
d="M508 -27h-87l-404 774h85z" />
    <glyph glyph-name="bracketright" unicode="]" horiz-adv-x="254" 
d="M39 -135v68h69v718h-69v69h143v-855h-143z" />
    <glyph glyph-name="asciicircum" unicode="^" horiz-adv-x="521" 
d="M117 397h-86l195 321h69l194 -321h-84l-145 254z" />
    <glyph glyph-name="underscore" unicode="_" horiz-adv-x="532" 
d="M489 0v-69h-446v69h446z" />
    <glyph glyph-name="grave" unicode="`" horiz-adv-x="388" 
d="M203 550h-55l-145 163h100z" />
    <glyph glyph-name="a" unicode="a" horiz-adv-x="455" 
d="M38 129v26q0 142 161 142h116v105q0 43 -21.5 62.5t-68.5 19.5q-46 0 -66 -19.5t-20 -62.5v-27h-73v36q0 139 162 139q163 0 163 -139v-415h-62l-9 39q-67 -41 -148 -41q-134 0 -134 135zM195 56q69 0 120 34v147h-104q-49 0 -72 -19t-23 -61v-25q0 -76 79 -76z" />
    <glyph glyph-name="b" unicode="b" horiz-adv-x="486" 
d="M132 -4h-66v724h76v-218q91 48 148 48q136 0 136 -142v-259q0 -74 -36.5 -115t-107.5 -41q-78 0 -140 43v-1zM274 481q-42 0 -132 -47v-329q55 -43 126 -43q82 0 82 101v231q0 87 -76 87z" />
    <glyph glyph-name="c" unicode="c" horiz-adv-x="468" 
d="M133 157q0 -98 108 -98q47 0 74.5 24.5t27.5 73.5v52h73v-70q0 -71 -45.5 -110t-129.5 -39q-89 0 -136.5 38.5t-47.5 110.5v262q0 72 47.5 110.5t136.5 38.5q84 0 129.5 -39t45.5 -110v-77h-73v59q0 98 -102 98q-108 0 -108 -98v-226z" />
    <glyph glyph-name="d" unicode="d" horiz-adv-x="479" 
d="M413 0h-66l-9 32q-64 -39 -131 -39q-71 0 -109.5 40.5t-38.5 108.5v266q0 67 38 104.5t108 37.5q69 0 132 -36v206h76v-720zM224 62q50 0 113 35v345q-61 39 -116 39q-40 0 -63 -22t-23 -65v-231q0 -47 22.5 -74t66.5 -27z" />
    <glyph glyph-name="e" unicode="e" horiz-adv-x="472" 
d="M133 161q0 -54 25 -79.5t77 -25.5q108 0 108 105v19h76v-34q0 -74 -48.5 -115t-135.5 -41q-85 0 -131.5 41t-46.5 115v248q0 74 46.5 115t131.5 41q87 0 135.5 -41t48.5 -115v-156h-286v-77zM133 379v-79h210v79q0 105 -108 105q-52 0 -77 -25.5t-25 -79.5z" />
    <glyph glyph-name="f" unicode="f" horiz-adv-x="293" 
d="M285 751v-66q-20 9 -58 9q-37 0 -54.5 -18t-17.5 -59v-77h120v-63h-120v-477h-76v477h-50v63h50v79q0 141 143 141q41 0 63 -9z" />
    <glyph glyph-name="g" unicode="g" horiz-adv-x="470" 
d="M59 152v256q0 67 38 104.5t108 37.5q71 0 132 -36l7 30h60v-568q0 -166 -213 -166q-71 0 -125 13v67q56 -14 121 -14q141 0 141 114v46q-60 -33 -121 -33q-71 0 -109.5 40.5t-38.5 108.5zM224 72q48 0 104 30v346q-53 33 -107 33q-40 0 -63 -22t-23 -65v-221
q0 -47 22.5 -74t66.5 -27z" />
    <glyph glyph-name="h" unicode="h" horiz-adv-x="474" 
d="M142 0h-76v720h76v-213q77 43 143 43q62 0 93 -35.5t31 -100.5v-414h-76v394q0 86 -72 86q-49 0 -119 -41v-439z" />
    <glyph glyph-name="i" unicode="i" horiz-adv-x="211" 
d="M144 0h-76v540h76v-540zM149 629h-83v111h83v-111z" />
    <glyph glyph-name="j" unicode="j" horiz-adv-x="217" 
d="M73 540h76v-526q0 -108 -32.5 -156t-110.5 -48q-22 0 -43 4v65q36 -3 39 -3q38 0 54.5 32t16.5 106v526zM155 636h-83v111h83v-111z" />
    <glyph glyph-name="k" unicode="k" horiz-adv-x="425" 
d="M142 0h-76v720h76v-411l180 231h86l-200 -247l210 -293h-87l-189 266v-266z" />
    <glyph glyph-name="l" unicode="l" horiz-adv-x="238" 
d="M67 720h76v-557q0 -53 14 -77t47 -24q22 0 33 5v-65q-18 -6 -59 -6q-57 0 -84 37t-27 122v565z" />
    <glyph glyph-name="m" unicode="m" horiz-adv-x="720" 
d="M126 544l9 -40q59 46 134 46q78 0 109 -56q69 56 151 56q61 0 93.5 -38t32.5 -105v-407h-76v389q0 93 -72 93q-53 0 -111 -43q2 -20 2 -32v-407h-76v389q0 93 -72 93q-61 0 -108 -39v-443h-76v544h60z" />
    <glyph glyph-name="n" unicode="n" horiz-adv-x="475" 
d="M126 544l9 -41q84 47 151 47q62 0 93 -35.5t31 -100.5v-414h-76v394q0 86 -71 86q-51 0 -121 -41v-439h-76v544h60z" />
    <glyph glyph-name="o" unicode="o" horiz-adv-x="476" 
d="M419 401v-262q0 -71 -46.5 -110t-133.5 -39q-88 0 -135 39t-47 110v262q0 71 47 110t135 39q87 0 133.5 -39t46.5 -110zM133 383v-226q0 -98 106 -98q104 0 104 98v226q0 98 -104 98q-106 0 -106 -98z" />
    <glyph glyph-name="p" unicode="p" horiz-adv-x="484" 
d="M142 -180h-76v724h60l9 -44q95 50 153 50q136 0 136 -142v-259q0 -74 -36.5 -115t-107.5 -41q-76 0 -138 42v-215zM272 481q-44 0 -130 -46v-332q54 -41 124 -41q82 0 82 101v231q0 87 -76 87z" />
    <glyph glyph-name="q" unicode="q" horiz-adv-x="486" 
d="M419 -180h-76v215q-66 -42 -136 -42q-71 0 -109.5 40.5t-38.5 108.5v266q0 67 38 104.5t108 37.5q77 0 146 -44l8 38h60v-724zM224 62q52 0 119 38v338q-64 43 -122 43q-40 0 -63 -22t-23 -65v-231q0 -47 22.5 -74t66.5 -27z" />
    <glyph glyph-name="r" unicode="r" horiz-adv-x="377" 
d="M357 333h-74v104q0 45 -40 45t-101 -51v-431h-76v544h61l8 -52q69 58 132 58q44 0 67 -27t23 -74v-116z" />
    <glyph glyph-name="s" unicode="s" horiz-adv-x="440" 
d="M394 180v-49q0 -77 -44.5 -109t-133.5 -32q-172 0 -172 129v61h73v-53q0 -41 25 -56t73 -15q53 0 79 15.5t26 58.5v44q0 52 -64 63l-82 15q-70 12 -95 40.5t-25 101.5v31q0 125 166 125q80 0 122.5 -31.5t42.5 -90.5v-56h-73v51q0 64 -89 64q-51 0 -74 -15t-23 -49v-29
q0 -41 15 -54t60 -22l75 -14q64 -11 91 -38.5t27 -85.5z" />
    <glyph glyph-name="t" unicode="t" horiz-adv-x="310" 
d="M24 477v63h60v120h76v-120h117v-63h-117v-334q0 -84 76 -84q41 0 61 10v-65q-30 -10 -77 -10q-136 0 -136 137v346h-60z" />
    <glyph glyph-name="u" unicode="u" 
d="M410 0h-60l-8 39q-86 -49 -153 -49q-62 0 -93.5 37.5t-31.5 105.5v407h76v-387q0 -93 72 -93q50 0 122 41v439h76v-540z" />
    <glyph glyph-name="v" unicode="v" horiz-adv-x="445" 
d="M341 540h79l-157 -540h-81l-157 540h80l117 -452z" />
    <glyph glyph-name="w" unicode="w" horiz-adv-x="672" 
d="M28 540h79l89 -465l101 465h77l101 -465l90 465h79l-123 -540h-88l-97 440l-98 -440h-88z" />
    <glyph glyph-name="x" unicode="x" horiz-adv-x="421" 
d="M28 540h83l99 -204l101 204h82l-141 -257l154 -283h-83l-113 225l-114 -225h-80l152 282z" />
    <glyph glyph-name="y" unicode="y" horiz-adv-x="452" 
d="M348 540h84l-171 -567q-31 -99 -73 -130.5t-102 -31.5q-34 0 -50 5v66q14 -5 41 -5q40 0 67 22.5t44 84.5l4 16h-1l-169 540h83l124 -442z" />
    <glyph glyph-name="z" unicode="z" horiz-adv-x="404" 
d="M45 477v63h320v-53l-258 -424h268v-63h-350v53l251 424h-231z" />
    <glyph glyph-name="braceleft" unicode="{" horiz-adv-x="279" 
d="M170 376q0 -92 -59 -118q59 -27 59 -118v-252q0 -72 76 -72v-66q-82 0 -117 32.5t-35 97.5v266q0 79 -70 79v66q70 0 70 79v230q0 65 35 97.5t117 32.5v-66q-76 0 -76 -72v-216z" />
    <glyph glyph-name="bar" unicode="|" horiz-adv-x="219" 
d="M148 -250h-76v1000h76v-1000z" />
    <glyph glyph-name="braceright" unicode="}" horiz-adv-x="279" 
d="M109 376v216q0 72 -76 72v66q82 0 117 -32.5t35 -97.5v-230q0 -79 70 -79v-66q-70 0 -70 -79v-266q0 -65 -35 -97.5t-117 -32.5v66q76 0 76 72v252q0 91 59 118q-59 26 -59 118z" />
    <glyph glyph-name="asciitilde" unicode="~" horiz-adv-x="540" 
d="M421 500h71q-5 -149 -118 -149q-33 0 -59.5 12t-40.5 27t-36 27t-47 12q-63 0 -64 -72h-72q1 68 33.5 105t90.5 37q36 0 64 -11.5t42.5 -26t35 -26t42.5 -11.5q31 0 44 19t14 57z" />
    <glyph glyph-name="uni00A0" unicode="&#xa0;" horiz-adv-x="197" 
 />
    <glyph glyph-name="exclamdown" unicode="&#xa1;" horiz-adv-x="220" 
d="M136 549l17 -307v-242h-85v242l17 307h51zM67 720h86v-111h-86v111z" />
    <glyph glyph-name="cent" unicode="&#xa2;" horiz-adv-x="460" 
d="M263 -130h-45v121q-80 4 -122 42t-42 106v262q0 67 42 105.5t122 42.5v101h45v-101q72 -6 111 -44.5t39 -103.5v-77h-73v59q0 98 -102 98q-108 0 -108 -98v-226q0 -98 108 -98q47 0 74.5 24.5t27.5 73.5v52h73v-70q0 -66 -39 -104t-111 -44v-121z" />
    <glyph glyph-name="sterling" unicode="&#xa3;" horiz-adv-x="508" 
d="M331 331v-67h-134q-4 -93 -60 -198h322v-66h-409v55q65 122 70 209h-66v67h61q-5 23 -20 65t-25 83t-10 84q0 82 46.5 124.5t133.5 42.5h20q94 0 146.5 -38.5t52.5 -107.5v-72h-76v42q0 58 -28 83.5t-92 25.5h-20q-57 0 -81 -27.5t-24 -83.5q0 -52 25.5 -124.5
t29.5 -96.5h138z" />
    <glyph glyph-name="currency" unicode="&#xa4;" horiz-adv-x="518" 
d="M47 136l44 46q-5 17 -5 31v222q0 19 8 37l-50 53l43 44l53 -56q33 15 81 15h77q48 0 80 -15l54 56l43 -44l-51 -53q9 -16 9 -37v-222q0 -16 -6 -31l45 -46l-43 -44l-44 45q-34 -17 -87 -17h-77q-52 0 -88 17l-43 -45zM148 234q0 -56 82 -56h59q44 0 63 13.5t19 42.5v180
q0 29 -19 42t-63 13h-59q-82 0 -82 -55v-180z" />
    <glyph glyph-name="yen" unicode="&#xa5;" horiz-adv-x="523" 
d="M299 0h-81v108h-138v69h138v83h-138v69h109l-170 391h86l153 -376l153 376h86l-169 -391h108v-69h-137v-83h137v-69h-137v-108z" />
    <glyph glyph-name="brokenbar" unicode="&#xa6;" horiz-adv-x="221" 
d="M71 150h79v-400h-79v400zM150 350h-79v400h79v-400z" />
    <glyph glyph-name="section" unicode="&#xa7;" horiz-adv-x="535" 
d="M494 185q0 -106 -101 -128q14 -27 14 -68v-21q0 -77 -43.5 -112.5t-142.5 -35.5q-93 0 -138 32t-45 104v44h73v-43q0 -40 27.5 -55.5t78.5 -15.5q57 0 84 15.5t27 58.5v30q0 30 -21 47t-84 28l-65 11q-63 12 -86.5 38t-23.5 89v31q0 94 103 117q-16 25 -16 76v38
q0 61 45 93t129 32q83 0 129 -31.5t46 -90.5v-53h-73v41q0 38 -23 54.5t-76 16.5t-77.5 -15t-24.5 -49v-36q0 -32 17.5 -45t71.5 -25l51 -10q84 -17 114 -44t30 -83v-35zM303 288l-33 8h-44q-103 0 -103 -65v-28q0 -36 16.5 -47.5t76.5 -23.5l62 -11q12 -2 19 -4h20
q50 0 75 14.5t25 52.5v30q0 29 -23 43t-91 31z" />
    <glyph glyph-name="dieresis" unicode="&#xa8;" horiz-adv-x="489" 
d="M187 570h-86v102h86v-102zM379 570h-86v102h86v-102z" />
    <glyph glyph-name="copyright" unicode="&#xa9;" horiz-adv-x="713" 
d="M646 584v-448q0 -65 -49.5 -100.5t-135.5 -35.5h-207q-86 0 -135.5 35.5t-49.5 100.5v448q0 65 49.5 100.5t135.5 35.5h207q86 0 135.5 -35.5t49.5 -100.5zM451 664h-187q-132 0 -132 -94v-420q0 -94 132 -94h187q132 0 132 94v420q0 94 -132 94zM294 258q0 -29 15 -42
t49 -13q27 0 43.5 15t16.5 40v53h58v-69q0 -44 -31.5 -68.5t-86.5 -24.5q-57 0 -90 24.5t-33 68.5v228q0 44 33 68.5t90 24.5q55 0 86.5 -24.5t31.5 -68.5v-69h-58v53q0 55 -60 55q-64 0 -64 -55v-196z" />
    <glyph glyph-name="ordfeminine" unicode="&#xaa;" horiz-adv-x="373" 
d="M45 438v15q0 99 100 99q50 0 95 -15v81q0 14 -3 24t-15.5 18.5t-35.5 8.5q-54 0 -54 -51v-17h-67v31q0 46 30 72.5t91 26.5q64 0 94.5 -26.5t30.5 -72.5v-286h-60l-5 23q-49 -30 -103 -30q-98 0 -98 99zM166 387q42 0 74 21v80q-30 15 -73 15q-52 0 -52 -49v-17
q0 -50 51 -50z" />
    <glyph glyph-name="guillemotleft" unicode="&#xab;" horiz-adv-x="469" 
d="M38 314l113 168h77l-124 -194l-2 -1h2l124 -193h-77l-113 168v52zM233 314l113 168h77l-124 -194l-2 -1h2l124 -193h-77l-113 168v52z" />
    <glyph glyph-name="logicalnot" unicode="&#xac;" horiz-adv-x="520" 
d="M454 278h-73v53h-321v69h394v-122z" />
    <glyph glyph-name="uni00AD" unicode="&#xad;" horiz-adv-x="437" 
d="M380 392v-69h-324v69h324z" />
    <glyph glyph-name="registered" unicode="&#xae;" horiz-adv-x="713" 
d="M646 584v-448q0 -65 -49.5 -100.5t-135.5 -35.5h-207q-86 0 -135.5 35.5t-49.5 100.5v448q0 65 49.5 100.5t135.5 35.5h207q86 0 135.5 -35.5t49.5 -100.5zM451 664h-187q-132 0 -132 -94v-420q0 -94 132 -94h187q132 0 132 94v420q0 94 -132 94zM302 162h-59v391h102
q132 0 132 -107v-40q0 -71 -73 -90l76 -154h-68l-68 148h-42v-148zM342 503h-40v-143h37q39 0 58.5 13t19.5 48v21q0 34 -19 47.5t-56 13.5z" />
    <glyph glyph-name="macron" unicode="&#xaf;" horiz-adv-x="833" 
d="M275 671h-275v61h275v-61z" />
    <glyph glyph-name="degree" unicode="&#xb0;" horiz-adv-x="373" 
d="M327 606v-56q0 -124 -140 -124q-68 0 -104 32t-36 92v56q0 60 36 92t104 32t104 -32t36 -92zM111 555q0 -70 76 -70t76 70v46q0 70 -76 70t-76 -70v-46z" />
    <glyph glyph-name="plusminus" unicode="&#xb1;" horiz-adv-x="513" 
d="M223 575h67v-165h165v-67h-165v-165h-67v165h-165v67h165v165zM455 66v-67h-398v67h398z" />
    <glyph glyph-name="twosuperior" unicode="&#xb2;" horiz-adv-x="370" 
d="M334 280v-60h-295v31q0 132 84 195q11 9 53.5 35.5t60.5 48.5t18 55v22q0 63 -63 63h-16q-63 0 -63 -55v-46h-69v60q0 49 35 75.5t100 26.5h13q66 0 100.5 -30t34.5 -87v-29q0 -52 -26 -85.5t-100 -79.5q-86 -52 -93 -140h226z" />
    <glyph glyph-name="threesuperior" unicode="&#xb3;" horiz-adv-x="377" 
d="M141 456v55h45q70 0 70 64v36q0 31 -14.5 45t-45.5 14h-13q-65 0 -65 -55v-40h-66v57q0 47 34 73t98 26h13q130 0 130 -113v-44q0 -61 -61 -81q68 -20 68 -95v-57q0 -68 -34.5 -98t-102.5 -30h-33q-65 0 -96.5 24t-31.5 78v56h67v-38q0 -56 65 -56h29q69 0 69 64v55
q0 60 -68 60h-57z" />
    <glyph glyph-name="acute" unicode="&#xb4;" horiz-adv-x="376" 
d="M135 550h-55l93 163h100z" />
    <glyph glyph-name="mu" unicode="&#xb5;" horiz-adv-x="489" 
d="M148 -250h-76v357q-1 8 -1 26v407h76v-250h1v-160q9 -70 71 -70q50 0 122 41v439h76v-540h-60l-8 39q-86 -49 -153 -49q-24 0 -48 7v-247z" />
    <glyph glyph-name="paragraph" unicode="&#xb6;" horiz-adv-x="456" 
d="M249 -117h-67v452h-47q-46 0 -71 23t-25 64v211q0 87 96 87h246v-837h-68v777h-64v-777z" />
    <glyph glyph-name="periodcentered" unicode="&#xb7;" horiz-adv-x="208" 
d="M147 230h-83v111h83v-111z" />
    <glyph glyph-name="cedilla" unicode="&#xb8;" horiz-adv-x="376" 
d="M176 8h47v-57h3q46 0 67 -18.5t21 -59.5q0 -44 -25 -63t-87 -19h-51v45h55q29 0 40.5 7.5t11.5 27.5v4q0 20 -11.5 28.5t-39.5 8.5h-31v96z" />
    <glyph glyph-name="onesuperior" unicode="&#xb9;" horiz-adv-x="231" 
d="M174 220h-70v424l-81 -31v64l102 47h49v-504z" />
    <glyph glyph-name="ordmasculine" unicode="&#xba;" horiz-adv-x="377" 
d="M322 625v-182q0 -50 -35 -77.5t-99 -27.5t-99 27.5t-35 77.5v182q0 50 35 77.5t99 27.5t99 -27.5t35 -77.5zM123 607v-147q0 -59 65 -59q64 0 64 59v147q0 60 -64 60q-65 0 -65 -60z" />
    <glyph glyph-name="guillemotright" unicode="&#xbb;" horiz-adv-x="469" 
d="M123 482l113 -168v-52l-113 -168h-77l124 193h2l-2 1l-124 194h77zM318 482l113 -168v-52l-113 -168h-77l124 193h2l-2 1l-124 194h77z" />
    <glyph glyph-name="onequarter" unicode="&#xbc;" horiz-adv-x="876" 
d="M178 220h-70v424l-81 -31v64l102 47h49v-504zM267 -20h-71l336 760h70zM785 0h-72v101h-193v47l204 356h61v-343h60v-60h-60v-101zM595 161h118v213z" />
    <glyph glyph-name="onehalf" unicode="&#xbd;" horiz-adv-x="902" 
d="M178 220h-70v424l-81 -31v64l102 47h49v-504zM267 -20h-71l336 760h70zM861 60v-60h-295v31q0 132 84 195q11 9 53.5 35.5t60.5 48.5t18 55v22q0 63 -63 63h-16q-63 0 -63 -55v-46h-69v60q0 49 35 75.5t100 26.5h13q66 0 100.5 -30t34.5 -87v-29q0 -52 -26 -85.5
t-100 -79.5q-86 -52 -93 -140h226z" />
    <glyph glyph-name="threequarters" unicode="&#xbe;" horiz-adv-x="978" 
d="M145 456v55h45q70 0 70 64v36q0 31 -14.5 45t-45.5 14h-13q-65 0 -65 -55v-40h-66v57q0 47 34 73t98 26h13q130 0 130 -113v-44q0 -61 -61 -81q68 -20 68 -95v-57q0 -68 -34.5 -98t-102.5 -30h-33q-65 0 -96.5 24t-31.5 78v56h67v-38q0 -56 65 -56h29q69 0 69 64v55
q0 60 -68 60h-57zM369 -20h-71l336 760h70zM888 0h-72v101h-193v47l204 356h61v-343h60v-60h-60v-101zM698 161h118v213z" />
    <glyph glyph-name="questiondown" unicode="&#xbf;" horiz-adv-x="481" 
d="M255 375h77v-123q0 -49 -21 -75.5t-74 -45.5q-49 -18 -66.5 -39.5t-17.5 -60.5v-85q0 -98 101 -98h18q47 0 74.5 24t27.5 74v71h76v-88q0 -71 -48.5 -109t-129.5 -38h-18q-83 0 -131.5 37.5t-48.5 108.5v117q0 58 24.5 85t91.5 54q40 15 52.5 35t12.5 50v106zM321 448
h-83v111h83v-111z" />
    <glyph glyph-name="Agrave" unicode="&#xc0;" horiz-adv-x="549" 
d="M96 0h-81l214 720h91l214 -720h-81l-49 171h-259zM275 627l-110 -385h219zM315 759h-55l-145 163h100z" />
    <glyph glyph-name="Aacute" unicode="&#xc1;" horiz-adv-x="549" 
d="M96 0h-81l214 720h91l214 -720h-81l-49 171h-259zM275 627l-110 -385h219zM299 759h-55l93 163h100z" />
    <glyph glyph-name="Acircumflex" unicode="&#xc2;" horiz-adv-x="549" 
d="M96 0h-81l214 720h91l214 -720h-81l-49 171h-259zM275 627l-110 -385h219zM246 901h59l129 -142h-74l-84 87l-85 -87h-74z" />
    <glyph glyph-name="Atilde" unicode="&#xc3;" horiz-adv-x="549" 
d="M96 0h-81l214 720h91l214 -720h-81l-49 171h-259zM275 627l-110 -385h219zM353 871h58q-1 -54 -23 -83t-61 -29q-30 0 -60 26.5t-43 26.5q-15 0 -24 -14.5t-9 -39.5h-57q1 53 24.5 82.5t60.5 29.5q25 0 45.5 -13t34.5 -26.5t23 -13.5q31 0 31 54z" />
    <glyph glyph-name="Adieresis" unicode="&#xc4;" horiz-adv-x="549" 
d="M96 0h-81l214 720h91l214 -720h-81l-49 171h-259zM275 627l-110 -385h219zM223 759h-86v102h86v-102zM415 759h-86v102h86v-102z" />
    <glyph glyph-name="Aring" unicode="&#xc5;" horiz-adv-x="549" 
d="M96 0h-81l214 720h91l214 -720h-81l-49 171h-259zM275 627l-110 -385h219zM388 891v-29q0 -90 -111 -90t-111 90v29q0 90 111 90t111 -90zM221 875q0 -56 56 -56t56 56v4q0 56 -56 56t-56 -56v-4z" />
    <glyph glyph-name="AE" unicode="&#xc6;" horiz-adv-x="811" 
d="M90 0h-85l382 720h384v-69h-274v-244h215v-69h-215v-270h274v-68h-355v170h-237zM215 239h201v384z" />
    <glyph glyph-name="Ccedilla" unicode="&#xc7;" horiz-adv-x="553" 
d="M149 164q0 -54 32 -78t101 -24q134 0 134 102v96h76v-114q0 -66 -46.5 -106t-127.5 -48v-41h3q46 0 67 -18.5t21 -59.5q0 -44 -25 -63t-87 -19h-51v45h55q29 0 40.5 7.5t11.5 27.5v4q0 20 -11.5 28.5t-39.5 8.5h-31v78q-95 2 -149 43t-54 113v428q0 74 57.5 115t156.5 41
q98 0 154 -41t56 -115v-114h-76v96q0 50 -36 76t-98 26q-133 0 -133 -102v-392z" />
    <glyph glyph-name="Egrave" unicode="&#xc8;" horiz-adv-x="471" 
d="M431 68v-68h-355v720h355v-69h-274v-244h215v-69h-215v-270h274zM296 759h-55l-145 163h100z" />
    <glyph glyph-name="Eacute" unicode="&#xc9;" horiz-adv-x="471" 
d="M431 68v-68h-355v720h355v-69h-274v-244h215v-69h-215v-270h274zM267 759h-55l93 163h100z" />
    <glyph glyph-name="Ecircumflex" unicode="&#xca;" horiz-adv-x="471" 
d="M431 68v-68h-355v720h355v-69h-274v-244h215v-69h-215v-270h274zM227 901h59l129 -142h-74l-84 87l-85 -87h-74z" />
    <glyph glyph-name="Edieresis" unicode="&#xcb;" horiz-adv-x="471" 
d="M431 68v-68h-355v720h355v-69h-274v-244h215v-69h-215v-270h274zM190 759h-83v111h83v-111zM410 759h-83v111h83v-111z" />
    <glyph glyph-name="Igrave" unicode="&#xcc;" horiz-adv-x="233" 
d="M157 0h-81v720h81v-720zM155 759h-55l-145 163h100z" />
    <glyph glyph-name="Iacute" unicode="&#xcd;" horiz-adv-x="233" 
d="M157 0h-81v720h81v-720zM126 759h-55l93 163h100z" />
    <glyph glyph-name="Icircumflex" unicode="&#xce;" horiz-adv-x="233" 
d="M157 0h-81v720h81v-720zM86 901h59l129 -142h-74l-84 87l-85 -87h-74z" />
    <glyph glyph-name="Idieresis" unicode="&#xcf;" horiz-adv-x="233" 
d="M157 0h-81v720h81v-720zM49 759h-83v111h83v-111zM269 759h-83v111h83v-111z" />
    <glyph glyph-name="Eth" unicode="&#xd0;" horiz-adv-x="583" 
d="M83 0v321h-63v69h63v330h172q138 0 201 -52t63 -154v-328q0 -96 -59.5 -141t-194.5 -45h-182zM273 390v-69h-109v-249h101q88 0 132 28.5t44 96.5v312q0 65 -46 102t-140 37h-91v-258h109z" />
    <glyph glyph-name="Ntilde" unicode="&#xd1;" horiz-adv-x="597" 
d="M521 0h-65l-307 544l2 -27v-517h-75v720h65l306 -545l-1 36v509h75v-720zM380 871h58q-1 -54 -23 -83t-61 -29q-30 0 -60 26.5t-43 26.5q-15 0 -24 -14.5t-9 -39.5h-57q1 53 24.5 82.5t60.5 29.5q25 0 45.5 -13t34.5 -26.5t23 -13.5q31 0 31 54z" />
    <glyph glyph-name="Ograve" unicode="&#xd2;" horiz-adv-x="570" 
d="M285 730q103 0 160 -43.5t57 -122.5v-408q0 -79 -57 -122.5t-160 -43.5t-160 43.5t-57 122.5v408q0 79 57 122.5t160 43.5zM285 658q-71 0 -103.5 -28t-32.5 -91v-358q0 -63 32.5 -91t103.5 -28t103.5 28t32.5 91v358q0 63 -32.5 91t-103.5 28zM324 769h-55l-145 163h100
z" />
    <glyph glyph-name="Oacute" unicode="&#xd3;" horiz-adv-x="570" 
d="M285 730q103 0 160 -43.5t57 -122.5v-408q0 -79 -57 -122.5t-160 -43.5t-160 43.5t-57 122.5v408q0 79 57 122.5t160 43.5zM285 658q-71 0 -103.5 -28t-32.5 -91v-358q0 -63 32.5 -91t103.5 -28t103.5 28t32.5 91v358q0 63 -32.5 91t-103.5 28zM308 769h-55l93 163h100z
" />
    <glyph glyph-name="Ocircumflex" unicode="&#xd4;" horiz-adv-x="570" 
d="M285 730q103 0 160 -43.5t57 -122.5v-408q0 -79 -57 -122.5t-160 -43.5t-160 43.5t-57 122.5v408q0 79 57 122.5t160 43.5zM285 658q-71 0 -103.5 -28t-32.5 -91v-358q0 -63 32.5 -91t103.5 -28t103.5 28t32.5 91v358q0 63 -32.5 91t-103.5 28zM255 911h59l129 -142h-74
l-84 87l-85 -87h-74z" />
    <glyph glyph-name="Otilde" unicode="&#xd5;" horiz-adv-x="570" 
d="M285 730q103 0 160 -43.5t57 -122.5v-408q0 -79 -57 -122.5t-160 -43.5t-160 43.5t-57 122.5v408q0 79 57 122.5t160 43.5zM285 658q-71 0 -103.5 -28t-32.5 -91v-358q0 -63 32.5 -91t103.5 -28t103.5 28t32.5 91v358q0 63 -32.5 91t-103.5 28zM382 887h58
q-1 -54 -23 -83t-61 -29q-30 0 -60 26.5t-43 26.5q-15 0 -24 -14.5t-9 -39.5h-57q1 53 24.5 82.5t60.5 29.5q25 0 45.5 -13t34.5 -26.5t23 -13.5q31 0 31 54z" />
    <glyph glyph-name="Odieresis" unicode="&#xd6;" horiz-adv-x="570" 
d="M285 730q103 0 160 -43.5t57 -122.5v-408q0 -79 -57 -122.5t-160 -43.5t-160 43.5t-57 122.5v408q0 79 57 122.5t160 43.5zM285 658q-71 0 -103.5 -28t-32.5 -91v-358q0 -63 32.5 -91t103.5 -28t103.5 28t32.5 91v358q0 63 -32.5 91t-103.5 28zM218 769h-83v111h83v-111z
M438 769h-83v111h83v-111z" />
    <glyph glyph-name="multiply" unicode="&#xd7;" horiz-adv-x="430" 
d="M332 195l-117 117l-117 -117l-48 47l117 117l-117 117l48 48l117 -117l117 117l47 -48l-117 -117l117 -117z" />
    <glyph glyph-name="Oslash" unicode="&#xd8;" horiz-adv-x="570" 
d="M285 730q98 0 156 -41l30 53h56l-50 -89q25 -39 25 -89v-408q0 -79 -57 -122.5t-160 -43.5q-101 0 -157 41l-27 -48h-56l47 85q-24 36 -24 88v408q0 79 57 122.5t160 43.5zM421 539q0 9 -1 13l-251 -448q30 -42 116 -42q71 0 103.5 28t32.5 91v358zM285 658
q-71 0 -103.5 -28t-32.5 -91v-370l251 447q-30 42 -115 42z" />
    <glyph glyph-name="Ugrave" unicode="&#xd9;" horiz-adv-x="579" 
d="M425 720h81v-562q0 -79 -58 -123.5t-159 -44.5q-100 0 -158.5 44.5t-58.5 123.5v562h81v-540q0 -118 136 -118t136 118v540zM329 759h-55l-145 163h100z" />
    <glyph glyph-name="Uacute" unicode="&#xda;" horiz-adv-x="579" 
d="M425 720h81v-562q0 -79 -58 -123.5t-159 -44.5q-100 0 -158.5 44.5t-58.5 123.5v562h81v-540q0 -118 136 -118t136 118v540zM312 759h-55l93 163h100z" />
    <glyph glyph-name="Ucircumflex" unicode="&#xdb;" horiz-adv-x="579" 
d="M425 720h81v-562q0 -79 -58 -123.5t-159 -44.5q-100 0 -158.5 44.5t-58.5 123.5v562h81v-540q0 -118 136 -118t136 118v540zM259 901h59l129 -142h-74l-84 87l-85 -87h-74z" />
    <glyph glyph-name="Udieresis" unicode="&#xdc;" horiz-adv-x="579" 
d="M425 720h81v-562q0 -79 -58 -123.5t-159 -44.5q-100 0 -158.5 44.5t-58.5 123.5v562h81v-540q0 -118 136 -118t136 118v540zM236 759h-86v102h86v-102zM428 759h-86v102h86v-102z" />
    <glyph glyph-name="Yacute" unicode="&#xdd;" horiz-adv-x="523" 
d="M302 0h-81v262l-199 458h86l153 -376l153 376h86l-198 -458v-262zM284 759h-55l93 163h100z" />
    <glyph glyph-name="Thorn" unicode="&#xde;" horiz-adv-x="511" 
d="M155 -180h-79v900h79v-176h104q94 0 146.5 -42t52.5 -124v-212q0 -83 -52.5 -124.5t-146.5 -41.5h-104v-180zM259 475h-104v-406h104q120 0 120 105v196q0 105 -120 105z" />
    <glyph glyph-name="germandbls" unicode="&#xdf;" horiz-adv-x="513" 
d="M147 0h-81v602q0 84 45.5 122t137.5 38q88 0 136.5 -38t48.5 -115v-71q0 -81 -66 -108q96 -34 96 -155v-115q0 -80 -50.5 -120t-141.5 -40h-66v69h66q114 0 114 107v90q0 124 -100 124h-80v53h2v11h62q86 0 86 94v46q0 99 -96 99h-13q-100 0 -100 -105v-588z" />
    <glyph glyph-name="agrave" unicode="&#xe0;" horiz-adv-x="455" 
d="M38 129v26q0 142 161 142h116v105q0 43 -21.5 62.5t-68.5 19.5q-46 0 -66 -19.5t-20 -62.5v-27h-73v36q0 139 162 139q163 0 163 -139v-415h-62l-9 39q-67 -41 -148 -41q-134 0 -134 135zM195 56q69 0 120 34v147h-104q-49 0 -72 -19t-23 -61v-25q0 -76 79 -76zM261 609
h-55l-145 163h100z" />
    <glyph glyph-name="aacute" unicode="&#xe1;" horiz-adv-x="455" 
d="M38 129v26q0 142 161 142h116v105q0 43 -21.5 62.5t-68.5 19.5q-46 0 -66 -19.5t-20 -62.5v-27h-73v36q0 139 162 139q163 0 163 -139v-415h-62l-9 39q-67 -41 -148 -41q-134 0 -134 135zM195 56q69 0 120 34v147h-104q-49 0 -72 -19t-23 -61v-25q0 -76 79 -76zM245 609
h-55l93 163h100z" />
    <glyph glyph-name="acircumflex" unicode="&#xe2;" horiz-adv-x="455" 
d="M38 129v26q0 142 161 142h116v105q0 43 -21.5 62.5t-68.5 19.5q-46 0 -66 -19.5t-20 -62.5v-27h-73v36q0 139 162 139q163 0 163 -139v-415h-62l-9 39q-67 -41 -148 -41q-134 0 -134 135zM195 56q69 0 120 34v147h-104q-49 0 -72 -19t-23 -61v-25q0 -76 79 -76zM192 751
h59l129 -142h-74l-84 87l-85 -87h-74z" />
    <glyph glyph-name="atilde" unicode="&#xe3;" horiz-adv-x="455" 
d="M38 129v26q0 142 161 142h116v105q0 43 -21.5 62.5t-68.5 19.5q-46 0 -66 -19.5t-20 -62.5v-27h-73v36q0 139 162 139q163 0 163 -139v-415h-62l-9 39q-67 -41 -148 -41q-134 0 -134 135zM195 56q69 0 120 34v147h-104q-49 0 -72 -19t-23 -61v-25q0 -76 79 -76zM299 721
h58q-1 -54 -23 -83t-61 -29q-30 0 -60 26.5t-43 26.5q-15 0 -24 -14.5t-9 -39.5h-57q1 53 24.5 82.5t60.5 29.5q25 0 45.5 -13t34.5 -26.5t23 -13.5q31 0 31 54z" />
    <glyph glyph-name="adieresis" unicode="&#xe4;" horiz-adv-x="455" 
d="M38 129v26q0 142 161 142h116v105q0 43 -21.5 62.5t-68.5 19.5q-46 0 -66 -19.5t-20 -62.5v-27h-73v36q0 139 162 139q163 0 163 -139v-415h-62l-9 39q-67 -41 -148 -41q-134 0 -134 135zM195 56q69 0 120 34v147h-104q-49 0 -72 -19t-23 -61v-25q0 -76 79 -76zM169 609
h-86v102h86v-102zM361 609h-86v102h86v-102z" />
    <glyph glyph-name="aring" unicode="&#xe5;" horiz-adv-x="455" 
d="M38 129v26q0 142 161 142h116v105q0 43 -21.5 62.5t-68.5 19.5q-46 0 -66 -19.5t-20 -62.5v-27h-73v36q0 139 162 139q163 0 163 -139v-415h-62l-9 39q-67 -41 -148 -41q-134 0 -134 135zM195 56q69 0 120 34v147h-104q-49 0 -72 -19t-23 -61v-25q0 -76 79 -76zM355 741
v-29q0 -90 -111 -90t-111 90v29q0 90 111 90t111 -90zM188 725q0 -56 56 -56t56 56v4q0 56 -56 56t-56 -56v-4z" />
    <glyph glyph-name="ae" unicode="&#xe6;" horiz-adv-x="729" 
d="M66 375v36q0 67 40.5 103t119.5 36q100 0 140 -54q40 54 127 54t135.5 -41t48.5 -115v-156h-286v-88q4 -94 102 -94q108 0 108 105v19h76v-34q0 -74 -48.5 -115t-135.5 -41q-90 0 -129 56q-86 -56 -186 -56q-69 0 -105 36t-36 103v26q0 139 146 139q69 0 132 -26v131
q0 85 -88 85t-88 -85v-24h-73zM391 389v-89h210v79q0 105 -108 105q-50 0 -75 -23t-27 -72zM195 50q63 0 120 30v128q-49 26 -118 26q-42 0 -61 -19t-19 -61v-25q0 -79 78 -79z" />
    <glyph glyph-name="ccedilla" unicode="&#xe7;" horiz-adv-x="469" 
d="M133 157q0 -98 108 -98q47 0 74.5 24.5t27.5 73.5v52h73v-70q0 -69 -42.5 -107.5t-120.5 -41.5v-39h3q46 0 67 -18.5t21 -59.5q0 -44 -25 -63t-87 -19h-51v45h55q29 0 40.5 7.5t11.5 27.5v4q0 20 -11.5 28.5t-39.5 8.5h-31v80q-72 7 -110.5 45t-38.5 102v262
q0 72 47.5 110.5t136.5 38.5q84 0 129.5 -39t45.5 -110v-77h-73v59q0 98 -102 98q-108 0 -108 -98v-226z" />
    <glyph glyph-name="egrave" unicode="&#xe8;" horiz-adv-x="472" 
d="M133 161q0 -54 25 -79.5t77 -25.5q108 0 108 105v19h76v-34q0 -74 -48.5 -115t-135.5 -41q-85 0 -131.5 41t-46.5 115v248q0 74 46.5 115t131.5 41q87 0 135.5 -41t48.5 -115v-156h-286v-77zM133 379v-79h210v79q0 105 -108 105q-52 0 -77 -25.5t-25 -79.5zM275 609h-55
l-145 163h100z" />
    <glyph glyph-name="eacute" unicode="&#xe9;" horiz-adv-x="472" 
d="M133 161q0 -54 25 -79.5t77 -25.5q108 0 108 105v19h76v-34q0 -74 -48.5 -115t-135.5 -41q-85 0 -131.5 41t-46.5 115v248q0 74 46.5 115t131.5 41q87 0 135.5 -41t48.5 -115v-156h-286v-77zM133 379v-79h210v79q0 105 -108 105q-52 0 -77 -25.5t-25 -79.5zM259 609h-55
l93 163h100z" />
    <glyph glyph-name="ecircumflex" unicode="&#xea;" horiz-adv-x="472" 
d="M133 161q0 -54 25 -79.5t77 -25.5q108 0 108 105v19h76v-34q0 -74 -48.5 -115t-135.5 -41q-85 0 -131.5 41t-46.5 115v248q0 74 46.5 115t131.5 41q87 0 135.5 -41t48.5 -115v-156h-286v-77zM133 379v-79h210v79q0 105 -108 105q-52 0 -77 -25.5t-25 -79.5zM206 751h59
l129 -142h-74l-84 87l-85 -87h-74z" />
    <glyph glyph-name="edieresis" unicode="&#xeb;" horiz-adv-x="472" 
d="M133 161q0 -54 25 -79.5t77 -25.5q108 0 108 105v19h76v-34q0 -74 -48.5 -115t-135.5 -41q-85 0 -131.5 41t-46.5 115v248q0 74 46.5 115t131.5 41q87 0 135.5 -41t48.5 -115v-156h-286v-77zM133 379v-79h210v79q0 105 -108 105q-52 0 -77 -25.5t-25 -79.5zM183 609h-86
v102h86v-102zM375 609h-86v102h86v-102z" />
    <glyph glyph-name="igrave" unicode="&#xec;" horiz-adv-x="212" 
d="M144 0h-76v540h76v-540zM145 599h-55l-145 163h100z" />
    <glyph glyph-name="iacute" unicode="&#xed;" horiz-adv-x="212" 
d="M144 0h-76v540h76v-540zM129 599h-55l93 163h100z" />
    <glyph glyph-name="icircumflex" unicode="&#xee;" horiz-adv-x="212" 
d="M144 0h-76v540h76v-540zM76 741h59l129 -142h-74l-84 87l-85 -87h-74z" />
    <glyph glyph-name="idieresis" unicode="&#xef;" horiz-adv-x="212" 
d="M144 0h-76v540h76v-540zM53 599h-86v102h86v-102zM245 599h-86v102h86v-102z" />
    <glyph glyph-name="eth" unicode="&#xf0;" horiz-adv-x="470" 
d="M357 745l39 -50l-73 -56q93 -144 93 -372v-121q0 -74 -49.5 -115t-136.5 -41q-86 0 -135.5 41t-49.5 115v171q0 64 44 100t120 36q73 0 117 -41q-19 99 -68 178l-87 -66l-38 53l87 65q-18 24 -58 64l62 47q33 -30 61 -62zM224 386q-101 0 -101 -90v-132q0 -50 27 -77.5
t80 -27.5q109 0 109 105v110q-2 59 -29 85.5t-86 26.5z" />
    <glyph glyph-name="ntilde" unicode="&#xf1;" horiz-adv-x="488" 
d="M142 431v-431h-76v544h60l10 -48q96 54 163 54q62 0 93 -35.5t31 -100.5v-414h-76v394q0 86 -71 86q-56 0 -134 -49zM341 712h58q-1 -54 -23 -83t-61 -29q-30 0 -60 26.5t-43 26.5q-15 0 -24 -14.5t-9 -39.5h-57q1 53 24.5 82.5t60.5 29.5q25 0 45.5 -13.5t34.5 -26.5
t23 -13q31 0 31 54z" />
    <glyph glyph-name="ograve" unicode="&#xf2;" horiz-adv-x="476" 
d="M419 401v-262q0 -71 -46.5 -110t-133.5 -39q-88 0 -135 39t-47 110v262q0 71 47 110t135 39q87 0 133.5 -39t46.5 -110zM133 383v-226q0 -98 106 -98q104 0 104 98v226q0 98 -104 98q-106 0 -106 -98zM275 609h-55l-145 163h100z" />
    <glyph glyph-name="oacute" unicode="&#xf3;" horiz-adv-x="476" 
d="M419 401v-262q0 -71 -46.5 -110t-133.5 -39q-88 0 -135 39t-47 110v262q0 71 47 110t135 39q87 0 133.5 -39t46.5 -110zM133 383v-226q0 -98 106 -98q104 0 104 98v226q0 98 -104 98q-106 0 -106 -98zM259 609h-55l93 163h100z" />
    <glyph glyph-name="ocircumflex" unicode="&#xf4;" horiz-adv-x="476" 
d="M419 401v-262q0 -71 -46.5 -110t-133.5 -39q-88 0 -135 39t-47 110v262q0 71 47 110t135 39q87 0 133.5 -39t46.5 -110zM133 383v-226q0 -98 106 -98q104 0 104 98v226q0 98 -104 98q-106 0 -106 -98zM206 751h59l129 -142h-74l-84 87l-85 -87h-74z" />
    <glyph glyph-name="otilde" unicode="&#xf5;" horiz-adv-x="476" 
d="M419 401v-262q0 -71 -46.5 -110t-133.5 -39q-88 0 -135 39t-47 110v262q0 71 47 110t135 39q87 0 133.5 -39t46.5 -110zM133 383v-226q0 -98 106 -98q104 0 104 98v226q0 98 -104 98q-106 0 -106 -98zM330 712h58q-1 -54 -23 -83t-61 -29q-30 0 -60 26.5t-43 26.5
q-15 0 -24 -14.5t-9 -39.5h-57q1 53 24.5 82.5t60.5 29.5q25 0 45.5 -13.5t34.5 -26.5t23 -13q31 0 31 54z" />
    <glyph glyph-name="odieresis" unicode="&#xf6;" horiz-adv-x="476" 
d="M419 401v-262q0 -71 -46.5 -110t-133.5 -39q-88 0 -135 39t-47 110v262q0 71 47 110t135 39q87 0 133.5 -39t46.5 -110zM133 383v-226q0 -98 106 -98q104 0 104 98v226q0 98 -104 98q-106 0 -106 -98zM184 609h-86v102h86v-102zM376 609h-86v102h86v-102z" />
    <glyph glyph-name="divide" unicode="&#xf7;" horiz-adv-x="504" 
d="M294 0h-83v111h83v-111zM294 394h-83v111h83v-111zM451 292v-67h-398v67h398z" />
    <glyph glyph-name="oslash" unicode="&#xf8;" horiz-adv-x="476" 
d="M105 -22h-66l42 75q-24 35 -24 86v262q0 71 47 110t135 39q66 0 109 -23l22 38h62l-41 -74q28 -36 28 -90v-262q0 -71 -46.5 -110t-133.5 -39q-68 0 -114 24zM343 383q0 14 -1 20l-180 -323q26 -21 77 -21q104 0 104 98v226zM133 383v-238l178 316q-26 20 -72 20
q-106 0 -106 -98z" />
    <glyph glyph-name="ugrave" unicode="&#xf9;" 
d="M410 0h-60l-8 39q-86 -49 -153 -49q-62 0 -93.5 37.5t-31.5 105.5v407h76v-387q0 -93 72 -93q50 0 122 41v439h76v-540zM275 599h-55l-145 163h100z" />
    <glyph glyph-name="uacute" unicode="&#xfa;" 
d="M410 0h-60l-8 39q-86 -49 -153 -49q-62 0 -93.5 37.5t-31.5 105.5v407h76v-387q0 -93 72 -93q50 0 122 41v439h76v-540zM259 599h-55l93 163h100z" />
    <glyph glyph-name="ucircumflex" unicode="&#xfb;" horiz-adv-x="476" 
d="M410 0h-60l-8 39q-86 -49 -153 -49q-62 0 -93.5 37.5t-31.5 105.5v407h76v-387q0 -93 72 -93q50 0 122 41v439h76v-540zM206 741h59l129 -142h-74l-84 87l-85 -87h-74z" />
    <glyph glyph-name="udieresis" unicode="&#xfc;" 
d="M410 0h-60l-8 39q-86 -49 -153 -49q-62 0 -93.5 37.5t-31.5 105.5v407h76v-387q0 -93 72 -93q50 0 122 41v439h76v-540zM183 599h-86v102h86v-102zM375 599h-86v102h86v-102z" />
    <glyph glyph-name="yacute" unicode="&#xfd;" horiz-adv-x="452" 
d="M348 540h84l-171 -567q-31 -99 -73 -130.5t-102 -31.5q-34 0 -50 5v66q14 -5 41 -5q40 0 67 22.5t44 84.5l4 16h-1l-169 540h83l124 -442zM261 599h-55l93 163h100z" />
    <glyph glyph-name="thorn" unicode="&#xfe;" horiz-adv-x="491" 
d="M146 -180h-80v900h80v-218q91 48 149 48q136 0 136 -142v-259q0 -74 -36.5 -115t-107.5 -41q-79 0 -141 44v-217zM279 481q-44 0 -133 -48v-327q54 -44 126 -44q83 0 83 101v231q0 87 -76 87z" />
    <glyph glyph-name="ydieresis" unicode="&#xff;" horiz-adv-x="452" 
d="M348 540h84l-171 -567q-31 -99 -73 -130.5t-102 -31.5q-34 0 -50 5v66q14 -5 41 -5q40 0 67 22.5t44 84.5l4 16h-1l-169 540h83l124 -442zM185 599h-86v102h86v-102zM377 599h-86v102h86v-102z" />
    <glyph glyph-name="Amacron" unicode="&#x100;" horiz-adv-x="549" 
d="M96 0h-81l214 720h91l214 -720h-81l-49 171h-259zM275 627l-110 -385h219zM412 766h-275v61h275v-61z" />
    <glyph glyph-name="amacron" unicode="&#x101;" horiz-adv-x="455" 
d="M38 129v26q0 142 161 142h116v105q0 43 -21.5 62.5t-68.5 19.5q-46 0 -66 -19.5t-20 -62.5v-27h-73v36q0 139 162 139q163 0 163 -139v-415h-62l-9 39q-67 -41 -148 -41q-134 0 -134 135zM195 56q69 0 120 34v147h-104q-49 0 -72 -19t-23 -61v-25q0 -76 79 -76zM358 616
h-275v61h275v-61z" />
    <glyph glyph-name="Abreve" unicode="&#x102;" horiz-adv-x="549" 
d="M96 0h-81l214 720h91l214 -720h-81l-49 171h-259zM275 627l-110 -385h219zM145 897h64v-8q0 -66 67 -66t67 66v8h64v-20q0 -53 -33 -81.5t-98 -28.5t-98 28.5t-33 81.5v20z" />
    <glyph glyph-name="abreve" unicode="&#x103;" horiz-adv-x="455" 
d="M38 129v26q0 142 161 142h116v105q0 43 -21.5 62.5t-68.5 19.5q-46 0 -66 -19.5t-20 -62.5v-27h-73v36q0 139 162 139q163 0 163 -139v-415h-62l-9 39q-67 -41 -148 -41q-134 0 -134 135zM195 56q69 0 120 34v147h-104q-49 0 -72 -19t-23 -61v-25q0 -76 79 -76zM91 747
h64v-8q0 -66 67 -66t67 66v8h64v-20q0 -53 -33 -81.5t-98 -28.5t-98 28.5t-33 81.5v20z" />
    <glyph glyph-name="Aogonek" unicode="&#x104;" horiz-adv-x="549" 
d="M395 -132q0 74 77 132h-19l-49 171h-259l-49 -171h-81l214 720h91l214 -720h-11q-66 -72 -66 -123q0 -39 44 -39q33 0 61 19l16 -43q-41 -30 -91 -30q-92 0 -92 84zM275 627l-110 -385h219z" />
    <glyph glyph-name="aogonek" unicode="&#x105;" horiz-adv-x="455" 
d="M38 129v26q0 142 161 142h116v105q0 43 -21.5 62.5t-68.5 19.5q-46 0 -66 -19.5t-20 -62.5v-27h-73v36q0 139 162 139q163 0 163 -139v-415h-6q-69 -74 -69 -122q0 -42 47 -42q33 0 61 19l17 -40q-43 -30 -91 -30q-92 0 -92 84q0 73 85 131h-14l-9 39q-67 -41 -148 -41
q-134 0 -134 135zM195 56q69 0 120 34v147h-104q-49 0 -72 -19t-23 -61v-25q0 -76 79 -76z" />
    <glyph glyph-name="Cacute" unicode="&#x106;" horiz-adv-x="553" 
d="M149 164q0 -54 32 -78t101 -24q134 0 134 102v96h76v-114q0 -74 -57.5 -115t-155.5 -41t-154.5 41t-56.5 115v428q0 74 57.5 115t156.5 41q98 0 154 -41t56 -115v-114h-76v96q0 50 -36 76t-98 26q-133 0 -133 -102v-392zM291 769h-55l93 163h100z" />
    <glyph glyph-name="cacute" unicode="&#x107;" horiz-adv-x="469" 
d="M133 157q0 -98 108 -98q47 0 74.5 24.5t27.5 73.5v52h73v-70q0 -71 -45.5 -110t-129.5 -39q-89 0 -136.5 38.5t-47.5 110.5v262q0 72 47.5 110.5t136.5 38.5q84 0 129.5 -39t45.5 -110v-77h-73v59q0 98 -102 98q-108 0 -108 -98v-226zM263 609h-55l93 163h100z" />
    <glyph glyph-name="Ccircumflex" unicode="&#x108;" horiz-adv-x="553" 
d="M149 164q0 -54 32 -78t101 -24q134 0 134 102v96h76v-114q0 -74 -57.5 -115t-155.5 -41t-154.5 41t-56.5 115v428q0 74 57.5 115t156.5 41q98 0 154 -41t56 -115v-114h-76v96q0 50 -36 76t-98 26q-133 0 -133 -102v-392zM251 911h59l129 -142h-74l-84 87l-85 -87h-74z
" />
    <glyph glyph-name="ccircumflex" unicode="&#x109;" horiz-adv-x="469" 
d="M133 157q0 -98 108 -98q47 0 74.5 24.5t27.5 73.5v52h73v-70q0 -71 -45.5 -110t-129.5 -39q-89 0 -136.5 38.5t-47.5 110.5v262q0 72 47.5 110.5t136.5 38.5q84 0 129.5 -39t45.5 -110v-77h-73v59q0 98 -102 98q-108 0 -108 -98v-226zM210 751h59l129 -142h-74l-84 87
l-85 -87h-74z" />
    <glyph glyph-name="Cdotaccent" unicode="&#x10a;" horiz-adv-x="553" 
d="M149 164q0 -54 32 -78t101 -24q134 0 134 102v96h76v-114q0 -74 -57.5 -115t-155.5 -41t-154.5 41t-56.5 115v428q0 74 57.5 115t156.5 41q98 0 154 -41t56 -115v-114h-76v96q0 50 -36 76t-98 26q-133 0 -133 -102v-392zM325 769h-83v111h83v-111z" />
    <glyph glyph-name="cdotaccent" unicode="&#x10b;" horiz-adv-x="469" 
d="M133 157q0 -98 108 -98q47 0 74.5 24.5t27.5 73.5v52h73v-70q0 -71 -45.5 -110t-129.5 -39q-89 0 -136.5 38.5t-47.5 110.5v262q0 72 47.5 110.5t136.5 38.5q84 0 129.5 -39t45.5 -110v-77h-73v59q0 98 -102 98q-108 0 -108 -98v-226zM284 609h-83v111h83v-111z" />
    <glyph glyph-name="Ccaron" unicode="&#x10c;" horiz-adv-x="553" 
d="M149 164q0 -54 32 -78t101 -24q134 0 134 102v96h76v-114q0 -74 -57.5 -115t-155.5 -41t-154.5 41t-56.5 115v428q0 74 57.5 115t156.5 41q98 0 154 -41t56 -115v-114h-76v96q0 50 -36 76t-98 26q-133 0 -133 -102v-392zM311 771h-63l-123 154h80l75 -99l74 99h81z" />
    <glyph glyph-name="ccaron" unicode="&#x10d;" horiz-adv-x="469" 
d="M133 157q0 -98 108 -98q47 0 74.5 24.5t27.5 73.5v52h73v-70q0 -71 -45.5 -110t-129.5 -39q-89 0 -136.5 38.5t-47.5 110.5v262q0 72 47.5 110.5t136.5 38.5q84 0 129.5 -39t45.5 -110v-77h-73v59q0 98 -102 98q-108 0 -108 -98v-226zM270 611h-63l-123 154h80l75 -99
l74 99h81z" />
    <glyph glyph-name="Dcaron" unicode="&#x10e;" horiz-adv-x="562" 
d="M76 0v720h165q135 0 196 -56.5t61 -172.5v-262q0 -117 -59 -173t-191 -56h-172zM241 651h-84v-582h91q172 0 172 162v258q0 85 -42.5 123.5t-136.5 38.5zM315 752h-63l-123 154h80l75 -99l74 99h81z" />
    <glyph glyph-name="dcaron" unicode="&#x10f;" horiz-adv-x="509" 
d="M406 0h-66l-8 28q-62 -35 -125 -35q-71 0 -109.5 40.5t-38.5 108.5v266q0 67 38 104.5t108 37.5q64 0 125 -32v202h76v-720zM224 62q47 0 106 31v354q-54 34 -109 34q-40 0 -63 -22t-23 -65v-231q0 -47 22.5 -74t66.5 -27z" />
    <glyph glyph-name="Dcroat" unicode="&#x110;" horiz-adv-x="578" 
d="M92 401v319h165q135 0 196 -56.5t61 -172.5v-262q0 -117 -59 -173t-191 -56h-172v332h-77v69h77zM339 401v-69h-166v-263h91q172 0 172 162v258q0 85 -42.5 123.5t-136.5 38.5h-84v-250h166z" />
    <glyph glyph-name="dcroat" unicode="&#x111;" horiz-adv-x="472" 
d="M59 142v266q0 67 38 104.5t108 37.5q64 0 125 -32v86h-132v63h132v53h76v-53h66v-63h-66v-604h-66l-8 28q-62 -35 -125 -35q-71 0 -109.5 40.5t-38.5 108.5zM224 62q47 0 106 31v354q-54 34 -109 34q-40 0 -63 -22t-23 -65v-231q0 -47 22.5 -74t66.5 -27z" />
    <glyph glyph-name="Emacron" unicode="&#x112;" horiz-adv-x="471" 
d="M431 68v-68h-355v720h355v-69h-274v-244h215v-69h-215v-270h274zM393 766h-275v61h275v-61z" />
    <glyph glyph-name="emacron" unicode="&#x113;" horiz-adv-x="472" 
d="M133 161q0 -54 25 -79.5t77 -25.5q108 0 108 105v19h76v-34q0 -74 -48.5 -115t-135.5 -41q-85 0 -131.5 41t-46.5 115v248q0 74 46.5 115t131.5 41q87 0 135.5 -41t48.5 -115v-156h-286v-77zM133 379v-79h210v79q0 105 -108 105q-52 0 -77 -25.5t-25 -79.5zM372 616h-275
v61h275v-61z" />
    <glyph glyph-name="Ebreve" unicode="&#x114;" horiz-adv-x="471" 
d="M431 68v-68h-355v720h355v-69h-274v-244h215v-69h-215v-270h274zM126 897h64v-8q0 -66 67 -66t67 66v8h64v-20q0 -53 -33 -81.5t-98 -28.5t-98 28.5t-33 81.5v20z" />
    <glyph glyph-name="ebreve" unicode="&#x115;" horiz-adv-x="472" 
d="M133 161q0 -54 25 -79.5t77 -25.5q108 0 108 105v19h76v-34q0 -74 -48.5 -115t-135.5 -41q-85 0 -131.5 41t-46.5 115v248q0 74 46.5 115t131.5 41q87 0 135.5 -41t48.5 -115v-156h-286v-77zM133 379v-79h210v79q0 105 -108 105q-52 0 -77 -25.5t-25 -79.5zM105 747h64
v-8q0 -66 67 -66t67 66v8h64v-20q0 -53 -33 -81.5t-98 -28.5t-98 28.5t-33 81.5v20z" />
    <glyph glyph-name="Edotaccent" unicode="&#x116;" horiz-adv-x="471" 
d="M431 68v-68h-355v720h355v-69h-274v-244h215v-69h-215v-270h274zM301 759h-83v111h83v-111z" />
    <glyph glyph-name="edotaccent" unicode="&#x117;" horiz-adv-x="472" 
d="M133 161q0 -54 25 -79.5t77 -25.5q108 0 108 105v19h76v-34q0 -74 -48.5 -115t-135.5 -41q-85 0 -131.5 41t-46.5 115v248q0 74 46.5 115t131.5 41q87 0 135.5 -41t48.5 -115v-156h-286v-77zM133 379v-79h210v79q0 105 -108 105q-52 0 -77 -25.5t-25 -79.5zM280 609h-83
v111h83v-111z" />
    <glyph glyph-name="Eogonek" unicode="&#x118;" horiz-adv-x="471" 
d="M431 68v-68h-355v720h355v-69h-274v-244h215v-69h-215v-270h274zM300 -135q0 74 77 132h51q-66 -72 -66 -123q0 -39 44 -39q33 0 61 19l16 -43q-41 -30 -91 -30q-92 0 -92 84z" />
    <glyph glyph-name="eogonek" unicode="&#x119;" horiz-adv-x="472" 
d="M144 -132q0 69 66 123q-74 6 -113.5 46t-39.5 109v248q0 74 46.5 115t131.5 41q87 0 135.5 -41t48.5 -115v-156h-286v-77q0 -54 25 -79.5t77 -25.5q108 0 108 105v19h76v-34q0 -68 -40.5 -108t-114.5 -47q-58 -68 -58 -114q0 -39 44 -39q33 0 61 19l16 -43
q-41 -30 -91 -30q-92 0 -92 84zM133 379v-79h210v79q0 105 -108 105q-52 0 -77 -25.5t-25 -79.5z" />
    <glyph glyph-name="Ecaron" unicode="&#x11a;" horiz-adv-x="471" 
d="M431 68v-68h-355v720h355v-69h-274v-244h215v-69h-215v-270h274zM287 761h-63l-123 154h80l75 -99l74 99h81z" />
    <glyph glyph-name="ecaron" unicode="&#x11b;" horiz-adv-x="472" 
d="M133 161q0 -54 25 -79.5t77 -25.5q108 0 108 105v19h76v-34q0 -74 -48.5 -115t-135.5 -41q-85 0 -131.5 41t-46.5 115v248q0 74 46.5 115t131.5 41q87 0 135.5 -41t48.5 -115v-156h-286v-77zM133 379v-79h210v79q0 105 -108 105q-52 0 -77 -25.5t-25 -79.5zM266 611h-63
l-123 154h80l75 -99l74 99h81z" />
    <glyph glyph-name="Gcircumflex" unicode="&#x11c;" horiz-adv-x="560" 
d="M499 0h-43l-17 53q-51 -63 -163 -63q-97 0 -152.5 41t-55.5 115v428q0 74 58 115t159 41q99 0 156.5 -41.5t57.5 -114.5v-114h-78v96q0 50 -36 76t-100 26q-136 0 -136 -102v-387q0 -55 33 -81t103 -26q64 0 100 27t36 80v116h-136v69h214v-354zM255 911h59l129 -142h-74
l-84 87l-85 -87h-74z" />
    <glyph glyph-name="gcircumflex" unicode="&#x11d;" horiz-adv-x="473" 
d="M59 142v266q0 67 38 104.5t108 37.5t134 -37l7 31h60v-568q0 -166 -213 -166q-71 0 -125 13v67q56 -14 121 -14q141 0 141 114v37q-61 -34 -123 -34q-71 0 -109.5 40.5t-38.5 108.5zM224 62q47 0 106 31v354q-54 34 -109 34q-40 0 -63 -22t-23 -65v-231q0 -47 22.5 -74
t66.5 -27zM203 751h59l129 -142h-74l-84 87l-85 -87h-74z" />
    <glyph glyph-name="Gbreve" unicode="&#x11e;" horiz-adv-x="560" 
d="M499 0h-43l-17 53q-51 -63 -163 -63q-97 0 -152.5 41t-55.5 115v428q0 74 58 115t159 41q99 0 156.5 -41.5t57.5 -114.5v-114h-78v96q0 50 -36 76t-100 26q-136 0 -136 -102v-387q0 -55 33 -81t103 -26q64 0 100 27t36 80v116h-136v69h214v-354zM154 907h64v-8
q0 -66 67 -66t67 66v8h64v-20q0 -53 -33 -81.5t-98 -28.5t-98 28.5t-33 81.5v20z" />
    <glyph glyph-name="gbreve" unicode="&#x11f;" horiz-adv-x="473" 
d="M59 142v266q0 67 38 104.5t108 37.5t134 -37l7 31h60v-568q0 -166 -213 -166q-71 0 -125 13v67q56 -14 121 -14q141 0 141 114v37q-61 -34 -123 -34q-71 0 -109.5 40.5t-38.5 108.5zM224 62q47 0 106 31v354q-54 34 -109 34q-40 0 -63 -22t-23 -65v-231q0 -47 22.5 -74
t66.5 -27zM102 747h64v-8q0 -66 67 -66t67 66v8h64v-20q0 -53 -33 -81.5t-98 -28.5t-98 28.5t-33 81.5v20z" />
    <glyph glyph-name="Gdotaccent" unicode="&#x120;" horiz-adv-x="560" 
d="M499 0h-43l-17 53q-51 -63 -163 -63q-97 0 -152.5 41t-55.5 115v428q0 74 58 115t159 41q99 0 156.5 -41.5t57.5 -114.5v-114h-78v96q0 50 -36 76t-100 26q-136 0 -136 -102v-387q0 -55 33 -81t103 -26q64 0 100 27t36 80v116h-136v69h214v-354zM329 769h-83v111h83v-111
z" />
    <glyph glyph-name="gdotaccent" unicode="&#x121;" horiz-adv-x="473" 
d="M59 142v266q0 67 38 104.5t108 37.5t134 -37l7 31h60v-568q0 -166 -213 -166q-71 0 -125 13v67q56 -14 121 -14q141 0 141 114v37q-61 -34 -123 -34q-71 0 -109.5 40.5t-38.5 108.5zM224 62q47 0 106 31v354q-54 34 -109 34q-40 0 -63 -22t-23 -65v-231q0 -47 22.5 -74
t66.5 -27zM277 609h-83v111h83v-111z" />
    <glyph glyph-name="Gcommaaccent" unicode="&#x122;" horiz-adv-x="560" 
d="M499 0h-43l-17 53q-51 -63 -163 -63q-97 0 -152.5 41t-55.5 115v428q0 74 58 115t159 41q99 0 156.5 -41.5t57.5 -114.5v-114h-78v96q0 50 -36 76t-100 26q-136 0 -136 -102v-387q0 -55 33 -81t103 -26q64 0 100 27t36 80v116h-136v69h214v-354z" />
    <glyph glyph-name="gcommaaccent" unicode="&#x123;" horiz-adv-x="473" 
d="M59 142v266q0 67 38 104.5t108 37.5t134 -37l7 31h60v-568q0 -166 -213 -166q-71 0 -125 13v67q56 -14 121 -14q141 0 141 114v37q-61 -34 -123 -34q-71 0 -109.5 40.5t-38.5 108.5zM224 62q47 0 106 31v354q-54 34 -109 34q-40 0 -63 -22t-23 -65v-231q0 -47 22.5 -74
t66.5 -27z" />
    <glyph glyph-name="Hcircumflex" unicode="&#x124;" horiz-adv-x="580" 
d="M157 0h-81v720h81v-313h266v313h81v-720h-81v338h-266v-338zM253 892h59l129 -142h-74l-84 87l-85 -87h-74z" />
    <glyph glyph-name="hcircumflex" unicode="&#x125;" 
d="M142 0h-76v720h76v-215q82 45 146 45q62 0 93 -35.5t31 -100.5v-414h-76v394q0 86 -72 86q-52 0 -122 -43v-437zM72 897h59l129 -142h-74l-84 87l-85 -87h-74z" />
    <glyph glyph-name="Hbar" unicode="&#x126;" horiz-adv-x="586" 
d="M160 0h-81v572h-59v67h59v81h81v-81h266v81h81v-81h59v-67h-59v-572h-81v338h-266v-338zM160 572v-165h266v165h-266z" />
    <glyph glyph-name="hbar" unicode="&#x127;" 
d="M143 0h-76v603h-64v55h64v62h76v-62h135v-55h-135v-97q80 44 145 44q62 0 93 -35.5t31 -100.5v-414h-76v394q0 86 -71 86q-51 0 -122 -42v-438z" />
    <glyph glyph-name="Itilde" unicode="&#x128;" horiz-adv-x="233" 
d="M157 0h-81v720h81v-720zM193 871h58q-1 -54 -23 -83t-61 -29q-30 0 -60 26.5t-43 26.5q-15 0 -24 -14.5t-9 -39.5h-57q1 53 24.5 82.5t60.5 29.5q25 0 45.5 -13t34.5 -26.5t23 -13.5q31 0 31 54z" />
    <glyph glyph-name="itilde" unicode="&#x129;" horiz-adv-x="212" 
d="M144 0h-76v540h76v-540zM183 711h58q-1 -54 -23 -83t-61 -29q-30 0 -60 26.5t-43 26.5q-15 0 -24 -14.5t-9 -39.5h-57q1 53 24.5 82.5t60.5 29.5q25 0 45.5 -13t34.5 -26.5t23 -13.5q31 0 31 54z" />
    <glyph glyph-name="Imacron" unicode="&#x12a;" horiz-adv-x="233" 
d="M157 0h-81v720h81v-720zM252 766h-275v61h275v-61z" />
    <glyph glyph-name="imacron" unicode="&#x12b;" horiz-adv-x="212" 
d="M144 0h-76v540h76v-540zM242 606h-275v61h275v-61z" />
    <glyph glyph-name="Ibreve" unicode="&#x12c;" horiz-adv-x="233" 
d="M157 0h-81v720h81v-720zM-15 897h64v-8q0 -66 67 -66t67 66v8h64v-20q0 -53 -33 -81.5t-98 -28.5t-98 28.5t-33 81.5v20z" />
    <glyph glyph-name="ibreve" unicode="&#x12d;" horiz-adv-x="212" 
d="M144 0h-76v540h76v-540zM-25 737h64v-8q0 -66 67 -66t67 66v8h64v-20q0 -53 -33 -81.5t-98 -28.5t-98 28.5t-33 81.5v20z" />
    <glyph glyph-name="Iogonek" unicode="&#x12e;" horiz-adv-x="233" 
d="M15 -132q0 74 77 132h-16v720h81v-720h-14q-66 -72 -66 -123q0 -39 44 -39q33 0 61 19l16 -43q-41 -30 -91 -30q-92 0 -92 84z" />
    <glyph glyph-name="iogonek" unicode="&#x12f;" horiz-adv-x="211" 
d="M7 -132q0 74 77 132h-16v540h76v-540h-9q-66 -72 -66 -123q0 -39 44 -39q33 0 61 19l16 -43q-41 -30 -91 -30q-92 0 -92 84zM149 621h-83v111h83v-111z" />
    <glyph glyph-name="Idotaccent" unicode="&#x130;" horiz-adv-x="233" 
d="M157 0h-81v720h81v-720zM160 759h-83v111h83v-111z" />
    <glyph glyph-name="dotlessi" unicode="&#x131;" horiz-adv-x="212" 
d="M144 0h-76v540h76v-540z" />
    <glyph glyph-name="IJ" unicode="&#x132;" horiz-adv-x="804" 
d="M157 0h-81v720h81v-720zM629 720h81v-549q0 -89 -53.5 -135t-152.5 -46q-93 0 -147.5 41t-54.5 115v113h78v-93q0 -52 32.5 -78t91.5 -26q125 0 125 112v546z" />
    <glyph glyph-name="ij" unicode="&#x133;" horiz-adv-x="428" 
d="M285 540h76v-526q0 -108 -32.5 -156t-110.5 -48q-21 0 -44 4v65q39 -3 40 -3q38 0 54.5 32t16.5 106v526zM144 0h-76v540h76v-540zM149 636h-83v111h83v-111zM366 648h-83v111h83v-111z" />
    <glyph glyph-name="Jcircumflex" unicode="&#x134;" horiz-adv-x="512" 
d="M359 720h81v-549q0 -89 -53.5 -135t-152.5 -46q-93 0 -147.5 41t-54.5 115v113h78v-93q0 -52 32.5 -78t91.5 -26q125 0 125 112v546zM368 901h59l129 -142h-74l-84 87l-85 -87h-74z" />
    <glyph glyph-name="jcircumflex" unicode="&#x135;" horiz-adv-x="217" 
d="M73 540h76v-526q0 -108 -32.5 -156t-110.5 -48q-22 0 -43 4v65q36 -3 39 -3q38 0 54.5 32t16.5 106v526zM81 741h59l129 -142h-74l-84 87l-85 -87h-74z" />
    <glyph glyph-name="Kcommaaccent" unicode="&#x136;" horiz-adv-x="503" 
d="M157 0h-81v720h81v-332l236 332h87l-245 -348l260 -372h-93l-245 348v-348zM324 -63l-64 -188h-56l34 188h86z" />
    <glyph glyph-name="kcommaaccent" unicode="&#x137;" horiz-adv-x="419" 
d="M142 0h-76v720h76v-403l174 223h86l-200 -247l210 -293h-87l-183 258v-258zM317 -63l-64 -188h-56l34 188h86z" />
    <glyph glyph-name="Lacute" unicode="&#x139;" horiz-adv-x="434" 
d="M417 68v-68h-341v720h81v-652h260zM160 759h-55l93 163h100z" />
    <glyph glyph-name="lacute" unicode="&#x13a;" horiz-adv-x="238" 
d="M67 720h76v-557q0 -53 14 -77t47 -24q22 0 33 5v-65q-18 -6 -59 -6q-57 0 -84 37t-27 122v565zM129 779h-55l93 163h100z" />
    <glyph glyph-name="Lcommaaccent" unicode="&#x13b;" horiz-adv-x="434" 
d="M417 68v-68h-341v720h81v-652h260zM312 -63l-64 -188h-56l34 188h86z" />
    <glyph glyph-name="lcommaaccent" unicode="&#x13c;" horiz-adv-x="238" 
d="M67 720h76v-557q0 -53 14 -77t47 -24q22 0 33 5v-65q-18 -6 -59 -6q-57 0 -84 37t-27 122v565zM202 -63l-64 -188h-56l34 188h86z" />
    <glyph glyph-name="Lcaron" unicode="&#x13d;" horiz-adv-x="484" 
d="M417 68v-68h-341v720h81v-652h260z" />
    <glyph glyph-name="lcaron" unicode="&#x13e;" horiz-adv-x="265" 
d="M67 720h76v-557q0 -53 14 -77t47 -24q22 0 33 5v-65q-18 -6 -59 -6q-57 0 -84 37t-27 122v565z" />
    <glyph glyph-name="Ldot" unicode="&#x13f;" horiz-adv-x="451" 
d="M417 68v-68h-341v720h81v-652h260zM419 230h-83v111h83v-111z" />
    <glyph glyph-name="ldot" unicode="&#x140;" horiz-adv-x="309" 
d="M67 720h76v-557q0 -53 14 -77t47 -24q22 0 33 5v-65q-18 -6 -59 -6q-57 0 -84 37t-27 122v565zM303 230h-83v111h83v-111z" />
    <glyph glyph-name="Lslash" unicode="&#x141;" horiz-adv-x="446" 
d="M16 203v81l72 45v391h81v-340l158 99v-81l-158 -99v-231h260v-68h-341v248z" />
    <glyph glyph-name="lslash" unicode="&#x142;" horiz-adv-x="360" 
d="M141 720h76v-315l117 74v-81l-117 -74v-161q0 -53 14 -77t47 -24q22 0 33 5v-65q-18 -6 -59 -6q-57 0 -84 37t-27 122v122l-118 -74v81l118 74v362z" />
    <glyph glyph-name="Nacute" unicode="&#x143;" horiz-adv-x="597" 
d="M521 0h-65l-307 544l2 -27v-517h-75v720h65l306 -545l-1 36v509h75v-720zM326 759h-55l93 163h100z" />
    <glyph glyph-name="nacute" unicode="&#x144;" 
d="M126 544l9 -42q88 48 153 48q62 0 93 -35.5t31 -100.5v-414h-76v394q0 86 -72 86q-52 0 -122 -43v-437h-76v544h60zM266 609h-55l93 163h100z" />
    <glyph glyph-name="Ncommaaccent" unicode="&#x145;" horiz-adv-x="597" 
d="M521 0h-65l-307 544l2 -27v-517h-75v720h65l306 -545l-1 36v509h75v-720zM467 -63l-64 -188h-56l34 188h86z" />
    <glyph glyph-name="ncommaaccent" unicode="&#x146;" 
d="M126 544l9 -42q88 48 153 48q62 0 93 -35.5t31 -100.5v-414h-76v394q0 86 -72 86q-52 0 -122 -43v-437h-76v544h60zM292 -63l-64 -188h-56l34 188h86z" />
    <glyph glyph-name="Ncaron" unicode="&#x147;" horiz-adv-x="597" 
d="M521 0h-65l-307 544l2 -27v-517h-75v720h65l306 -545l-1 36v509h75v-720zM333 761h-63l-123 154h80l75 -99l74 99h81z" />
    <glyph glyph-name="ncaron" unicode="&#x148;" 
d="M126 544l9 -42q88 48 153 48q62 0 93 -35.5t31 -100.5v-414h-76v394q0 86 -72 86q-52 0 -122 -43v-437h-76v544h60zM273 611h-63l-123 154h80l75 -99l74 99h81z" />
    <glyph glyph-name="napostrophe" unicode="&#x149;" 
d="M126 544l9 -42q88 48 153 48q62 0 93 -35.5t31 -100.5v-414h-76v394q0 86 -72 86q-52 0 -122 -43v-437h-76v544h60zM294 -51l-64 -188h-56l34 188h86z" />
    <glyph glyph-name="Omacron" unicode="&#x14c;" horiz-adv-x="570" 
d="M285 730q103 0 160 -43.5t57 -122.5v-408q0 -79 -57 -122.5t-160 -43.5t-160 43.5t-57 122.5v408q0 79 57 122.5t160 43.5zM285 658q-71 0 -103.5 -28t-32.5 -91v-358q0 -63 32.5 -91t103.5 -28t103.5 28t32.5 91v358q0 63 -32.5 91t-103.5 28zM421 776h-275v61h275v-61z
" />
    <glyph glyph-name="omacron" unicode="&#x14d;" horiz-adv-x="476" 
d="M419 401v-262q0 -71 -46.5 -110t-133.5 -39q-88 0 -135 39t-47 110v262q0 71 47 110t135 39q87 0 133.5 -39t46.5 -110zM133 383v-226q0 -98 106 -98q104 0 104 98v226q0 98 -104 98q-106 0 -106 -98zM371 616h-275v61h275v-61z" />
    <glyph glyph-name="Obreve" unicode="&#x14e;" horiz-adv-x="570" 
d="M285 730q103 0 160 -43.5t57 -122.5v-408q0 -79 -57 -122.5t-160 -43.5t-160 43.5t-57 122.5v408q0 79 57 122.5t160 43.5zM285 658q-71 0 -103.5 -28t-32.5 -91v-358q0 -63 32.5 -91t103.5 -28t103.5 28t32.5 91v358q0 63 -32.5 91t-103.5 28zM154 907h64v-8
q0 -66 67 -66t67 66v8h64v-20q0 -53 -33 -81.5t-98 -28.5t-98 28.5t-33 81.5v20z" />
    <glyph glyph-name="obreve" unicode="&#x14f;" horiz-adv-x="476" 
d="M419 401v-262q0 -71 -46.5 -110t-133.5 -39q-88 0 -135 39t-47 110v262q0 71 47 110t135 39q87 0 133.5 -39t46.5 -110zM133 383v-226q0 -98 106 -98q104 0 104 98v226q0 98 -104 98q-106 0 -106 -98zM105 747h64v-8q0 -66 67 -66t67 66v8h64v-20q0 -53 -33 -81.5
t-98 -28.5t-98 28.5t-33 81.5v20z" />
    <glyph glyph-name="Ohungarumlaut" unicode="&#x150;" horiz-adv-x="570" 
d="M285 730q103 0 160 -43.5t57 -122.5v-408q0 -79 -57 -122.5t-160 -43.5t-160 43.5t-57 122.5v408q0 79 57 122.5t160 43.5zM285 658q-71 0 -103.5 -28t-32.5 -91v-358q0 -63 32.5 -91t103.5 -28t103.5 28t32.5 91v358q0 63 -32.5 91t-103.5 28zM247 769h-55l93 163h100z
M391 769h-55l93 163h100z" />
    <glyph glyph-name="ohungarumlaut" unicode="&#x151;" horiz-adv-x="476" 
d="M419 401v-262q0 -71 -46.5 -110t-133.5 -39q-88 0 -135 39t-47 110v262q0 71 47 110t135 39q87 0 133.5 -39t46.5 -110zM133 383v-226q0 -98 106 -98q104 0 104 98v226q0 98 -104 98q-106 0 -106 -98zM198 609h-55l93 163h100zM342 609h-55l93 163h100z" />
    <glyph glyph-name="OE" unicode="&#x152;" horiz-adv-x="816" 
d="M776 68v-68h-355v30q-49 -40 -136 -40q-103 0 -160 43.5t-57 122.5v408q0 79 57 122.5t160 43.5q87 0 136 -40v30h355v-69h-274v-244h215v-69h-215v-270h274zM285 658q-71 0 -103.5 -28t-32.5 -91v-358q0 -63 32.5 -91t103.5 -28q69 0 102 26.5t34 85.5v371
q-1 60 -34 86.5t-102 26.5z" />
    <glyph glyph-name="oe" unicode="&#x153;" horiz-adv-x="754" 
d="M702 238h-283v-99q0 -2 -0.5 -6t-0.5 -5q13 -72 100 -72q108 0 108 105v19h76v-34q0 -74 -48.5 -115t-135.5 -41q-90 0 -138 46q-46 -46 -141 -46q-88 0 -135 39t-47 110v262q0 71 47 110t135 39q94 0 141 -47q47 47 138 47q87 0 135.5 -41t48.5 -115v-156zM133 383v-226
q0 -98 106 -98q88 0 101 70v281q-13 71 -101 71q-106 0 -106 -98zM419 401v-101h207v79q0 105 -108 105q-87 0 -100 -72q0 -2 0.5 -6t0.5 -5z" />
    <glyph glyph-name="Racute" unicode="&#x154;" horiz-adv-x="516" 
d="M157 0h-81v720h157q117 0 170 -50t53 -146v-59q0 -140 -126 -172l173 -293h-91l-163 282h-92v-282zM238 651h-81v-301h77q73 0 107 29t34 94v47q0 68 -33.5 99.5t-103.5 31.5zM301 759h-55l93 163h100z" />
    <glyph glyph-name="racute" unicode="&#x155;" horiz-adv-x="377" 
d="M357 333h-74v104q0 45 -40 45t-101 -51v-431h-76v544h61l8 -52q69 58 132 58q44 0 67 -27t23 -74v-116zM240 609h-55l93 163h100z" />
    <glyph glyph-name="Rcommaaccent" unicode="&#x156;" horiz-adv-x="516" 
d="M157 0h-81v720h157q117 0 170 -50t53 -146v-59q0 -140 -126 -172l173 -293h-91l-163 282h-92v-282zM238 651h-81v-301h77q73 0 107 29t34 94v47q0 68 -33.5 99.5t-103.5 31.5zM334 -63l-64 -188h-56l34 188h86z" />
    <glyph glyph-name="rcommaaccent" unicode="&#x157;" horiz-adv-x="377" 
d="M357 333h-74v104q0 45 -40 45t-101 -51v-431h-76v544h61l8 -52q69 58 132 58q44 0 67 -27t23 -74v-116zM183 -63l-64 -188h-56l34 188h86z" />
    <glyph glyph-name="Rcaron" unicode="&#x158;" horiz-adv-x="516" 
d="M157 0h-81v720h157q117 0 170 -50t53 -146v-59q0 -140 -126 -172l173 -293h-91l-163 282h-92v-282zM238 651h-81v-301h77q73 0 107 29t34 94v47q0 68 -33.5 99.5t-103.5 31.5zM297 761h-63l-123 154h80l75 -99l74 99h81z" />
    <glyph glyph-name="rcaron" unicode="&#x159;" horiz-adv-x="377" 
d="M357 333h-74v104q0 45 -40 45t-101 -51v-431h-76v544h61l8 -52q69 58 132 58q44 0 67 -27t23 -74v-116zM247 611h-63l-123 154h80l75 -99l74 99h81z" />
    <glyph glyph-name="Sacute" unicode="&#x15a;" horiz-adv-x="512" 
d="M467 218v-53q0 -175 -189 -175h-52q-89 0 -133 34.5t-44 111.5v83h80v-61q0 -55 23 -75.5t76 -20.5h46q58 0 85 20t27 84v53q0 44 -21.5 69.5t-73.5 37.5l-97 21q-71 15 -102.5 51t-31.5 120v46q0 82 45.5 124t132.5 42h23q86 0 135 -38.5t49 -107.5v-79h-79v63
q0 93 -104 93h-21q-53 0 -77 -23t-24 -80v-35q0 -53 15.5 -72.5t67.5 -31.5l91 -20q86 -20 119.5 -61t33.5 -120zM287 769h-55l93 163h100z" />
    <glyph glyph-name="sacute" unicode="&#x15b;" horiz-adv-x="440" 
d="M394 180v-49q0 -77 -44.5 -109t-133.5 -32q-172 0 -172 129v61h73v-53q0 -41 25 -56t73 -15q53 0 79 15.5t26 58.5v44q0 52 -64 63l-82 15q-70 12 -95 40.5t-25 101.5v31q0 125 166 125q80 0 122.5 -31.5t42.5 -90.5v-56h-73v51q0 64 -89 64q-51 0 -74 -15t-23 -49v-29
q0 -41 15 -54t60 -22l75 -14q64 -11 91 -38.5t27 -85.5zM247 609h-55l93 163h100z" />
    <glyph glyph-name="Scircumflex" unicode="&#x15c;" horiz-adv-x="512" 
d="M467 218v-53q0 -175 -189 -175h-52q-89 0 -133 34.5t-44 111.5v83h80v-61q0 -55 23 -75.5t76 -20.5h46q58 0 85 20t27 84v53q0 44 -21.5 69.5t-73.5 37.5l-97 21q-71 15 -102.5 51t-31.5 120v46q0 82 45.5 124t132.5 42h23q86 0 135 -38.5t49 -107.5v-79h-79v63
q0 93 -104 93h-21q-53 0 -77 -23t-24 -80v-35q0 -53 15.5 -72.5t67.5 -31.5l91 -20q86 -20 119.5 -61t33.5 -120zM234 911h59l129 -142h-74l-84 87l-85 -87h-74z" />
    <glyph glyph-name="scircumflex" unicode="&#x15d;" horiz-adv-x="440" 
d="M394 180v-49q0 -77 -44.5 -109t-133.5 -32q-172 0 -172 129v61h73v-53q0 -41 25 -56t73 -15q53 0 79 15.5t26 58.5v44q0 52 -64 63l-82 15q-70 12 -95 40.5t-25 101.5v31q0 125 166 125q80 0 122.5 -31.5t42.5 -90.5v-56h-73v51q0 64 -89 64q-51 0 -74 -15t-23 -49v-29
q0 -41 15 -54t60 -22l75 -14q64 -11 91 -38.5t27 -85.5zM194 751h59l129 -142h-74l-84 87l-85 -87h-74z" />
    <glyph glyph-name="Scedilla" unicode="&#x15e;" horiz-adv-x="512" 
d="M467 218v-53q0 -159 -154 -173v-41h3q46 0 67 -18.5t21 -59.5q0 -44 -25 -63t-87 -19h-51v45h55q29 0 40.5 7.5t11.5 27.5v4q0 20 -11.5 28.5t-39.5 8.5h-31v78h-40q-89 0 -133 34.5t-44 111.5v83h80v-61q0 -55 23 -75.5t76 -20.5h46q58 0 85 20t27 84v53
q0 44 -21.5 69.5t-73.5 37.5l-97 21q-71 15 -102.5 51t-31.5 120v46q0 82 45.5 124t132.5 42h23q86 0 135 -38.5t49 -107.5v-79h-79v63q0 93 -104 93h-21q-53 0 -77 -23t-24 -80v-35q0 -53 15.5 -72.5t67.5 -31.5l91 -20q86 -20 119.5 -61t33.5 -120z" />
    <glyph glyph-name="scedilla" unicode="&#x15f;" horiz-adv-x="439" 
d="M394 180v-49q0 -74 -41.5 -106.5t-122.5 -34.5v-42h3q46 0 67 -18.5t21 -59.5q0 -44 -25 -63t-87 -19h-51v45h55q29 0 40.5 7.5t11.5 27.5v4q0 20 -11.5 28.5t-39.5 8.5h-31v82q-139 11 -139 128v61h73v-53q0 -41 25 -56t73 -15q53 0 79 15.5t26 58.5v44q0 52 -64 63
l-82 15q-70 12 -95 40.5t-25 101.5v31q0 125 166 125q80 0 122.5 -31.5t42.5 -90.5v-56h-73v51q0 64 -89 64q-51 0 -74 -15t-23 -49v-29q0 -41 15 -54t60 -22l75 -14q64 -11 91 -38.5t27 -85.5z" />
    <glyph glyph-name="Scaron" unicode="&#x160;" horiz-adv-x="512" 
d="M467 218v-53q0 -175 -189 -175h-52q-89 0 -133 34.5t-44 111.5v83h80v-61q0 -55 23 -75.5t76 -20.5h46q58 0 85 20t27 84v53q0 44 -21.5 69.5t-73.5 37.5l-97 21q-71 15 -102.5 51t-31.5 120v46q0 82 45.5 124t132.5 42h23q86 0 135 -38.5t49 -107.5v-79h-79v63
q0 93 -104 93h-21q-53 0 -77 -23t-24 -80v-35q0 -53 15.5 -72.5t67.5 -31.5l91 -20q86 -20 119.5 -61t33.5 -120zM294 771h-63l-123 154h80l75 -99l74 99h81z" />
    <glyph glyph-name="scaron" unicode="&#x161;" horiz-adv-x="440" 
d="M394 180v-49q0 -77 -44.5 -109t-133.5 -32q-172 0 -172 129v61h73v-53q0 -41 25 -56t73 -15q53 0 79 15.5t26 58.5v44q0 52 -64 63l-82 15q-70 12 -95 40.5t-25 101.5v31q0 125 166 125q80 0 122.5 -31.5t42.5 -90.5v-56h-73v51q0 64 -89 64q-51 0 -74 -15t-23 -49v-29
q0 -41 15 -54t60 -22l75 -14q64 -11 91 -38.5t27 -85.5zM254 611h-63l-123 154h80l75 -99l74 99h81z" />
    <glyph glyph-name="Tcommaaccent" unicode="&#x162;" horiz-adv-x="453" 
d="M268 0h-81v651h-170v69h419v-69h-168v-651zM287 -63l-64 -188h-56l34 188h86z" />
    <glyph glyph-name="tcommaaccent" unicode="&#x163;" horiz-adv-x="310" 
d="M24 477v63h60v120h76v-120h117v-63h-117v-334q0 -84 76 -84q41 0 61 10v-65q-30 -10 -77 -10q-136 0 -136 137v346h-60zM208 -63l-64 -188h-56l34 188h86z" />
    <glyph glyph-name="Tcaron" unicode="&#x164;" horiz-adv-x="453" 
d="M268 0h-81v651h-170v69h419v-69h-168v-651zM257 761h-63l-123 154h80l75 -99l74 99h81z" />
    <glyph glyph-name="tcaron" unicode="&#x165;" horiz-adv-x="310" 
d="M24 477v63h60v120h76v-120h117v-63h-117v-334q0 -84 76 -84q41 0 61 10v-65q-30 -10 -77 -10q-136 0 -136 137v346h-60z" />
    <glyph glyph-name="Tbar" unicode="&#x166;" horiz-adv-x="467" 
d="M241 0h-81v415h-120v68h120v168h-169v69h419v-69h-169v-168h123v-68h-123v-415z" />
    <glyph glyph-name="tbar" unicode="&#x167;" horiz-adv-x="333" 
d="M46 477v63h60v120h76v-120h117v-63h-117v-58h115v-63h-115v-213q0 -84 76 -84q41 0 61 10v-65q-30 -10 -77 -10q-136 0 -136 137v225h-62v63h62v58h-60z" />
    <glyph glyph-name="Utilde" unicode="&#x168;" horiz-adv-x="579" 
d="M425 720h81v-562q0 -79 -58 -123.5t-159 -44.5q-100 0 -158.5 44.5t-58.5 123.5v562h81v-540q0 -118 136 -118t136 118v540zM366 871h58q-1 -54 -23 -83t-61 -29q-30 0 -60 26.5t-43 26.5q-15 0 -24 -14.5t-9 -39.5h-57q1 53 24.5 82.5t60.5 29.5q25 0 45.5 -13
t34.5 -26.5t23 -13.5q31 0 31 54z" />
    <glyph glyph-name="utilde" unicode="&#x169;" 
d="M410 0h-60l-8 39q-86 -49 -153 -49q-62 0 -93.5 37.5t-31.5 105.5v407h76v-387q0 -93 72 -93q50 0 122 41v439h76v-540zM326 711h58q-1 -54 -23 -83t-61 -29q-30 0 -60 26.5t-43 26.5q-15 0 -24 -14.5t-9 -39.5h-57q1 53 24.5 82.5t60.5 29.5q25 0 45.5 -13t34.5 -26.5
t23 -13.5q31 0 31 54z" />
    <glyph glyph-name="Umacron" unicode="&#x16a;" horiz-adv-x="579" 
d="M425 720h81v-562q0 -79 -58 -123.5t-159 -44.5q-100 0 -158.5 44.5t-58.5 123.5v562h81v-540q0 -118 136 -118t136 118v540zM425 766h-275v61h275v-61z" />
    <glyph glyph-name="umacron" unicode="&#x16b;" 
d="M410 0h-60l-8 39q-86 -49 -153 -49q-62 0 -93.5 37.5t-31.5 105.5v407h76v-387q0 -93 72 -93q50 0 122 41v439h76v-540zM372 606h-275v61h275v-61z" />
    <glyph glyph-name="Ubreve" unicode="&#x16c;" horiz-adv-x="579" 
d="M425 720h81v-562q0 -79 -58 -123.5t-159 -44.5q-100 0 -158.5 44.5t-58.5 123.5v562h81v-540q0 -118 136 -118t136 118v540zM159 897h64v-8q0 -66 67 -66t67 66v8h64v-20q0 -53 -33 -81.5t-98 -28.5t-98 28.5t-33 81.5v20z" />
    <glyph glyph-name="ubreve" unicode="&#x16d;" 
d="M410 0h-60l-8 39q-86 -49 -153 -49q-62 0 -93.5 37.5t-31.5 105.5v407h76v-387q0 -93 72 -93q50 0 122 41v439h76v-540zM105 737h64v-8q0 -66 67 -66t67 66v8h64v-20q0 -53 -33 -81.5t-98 -28.5t-98 28.5t-33 81.5v20z" />
    <glyph glyph-name="Uring" unicode="&#x16e;" horiz-adv-x="579" 
d="M425 720h81v-562q0 -79 -58 -123.5t-159 -44.5q-100 0 -158.5 44.5t-58.5 123.5v562h81v-540q0 -118 136 -118t136 118v540zM401 891v-29q0 -90 -111 -90t-111 90v29q0 90 111 90t111 -90zM234 875q0 -56 56 -56t56 56v4q0 56 -56 56t-56 -56v-4z" />
    <glyph glyph-name="uring" unicode="&#x16f;" 
d="M410 0h-60l-8 39q-86 -49 -153 -49q-62 0 -93.5 37.5t-31.5 105.5v407h76v-387q0 -93 72 -93q50 0 122 41v439h76v-540zM361 731v-29q0 -90 -111 -90t-111 90v29q0 90 111 90t111 -90zM194 715q0 -56 56 -56t56 56v4q0 56 -56 56t-56 -56v-4z" />
    <glyph glyph-name="Uhungarumlaut" unicode="&#x170;" horiz-adv-x="579" 
d="M425 720h81v-562q0 -79 -58 -123.5t-159 -44.5q-100 0 -158.5 44.5t-58.5 123.5v562h81v-540q0 -118 136 -118t136 118v540zM251 759h-55l93 163h100zM395 759h-55l93 163h100z" />
    <glyph glyph-name="uhungarumlaut" unicode="&#x171;" 
d="M410 0h-60l-8 39q-86 -49 -153 -49q-62 0 -93.5 37.5t-31.5 105.5v407h76v-387q0 -93 72 -93q50 0 122 41v439h76v-540zM198 599h-55l93 163h100zM342 599h-55l93 163h100z" />
    <glyph glyph-name="Uogonek" unicode="&#x172;" horiz-adv-x="579" 
d="M202 -132q0 66 65 123q-91 5 -143 49t-52 118v562h81v-540q0 -118 136 -118t136 118v540h81v-562q0 -72 -49 -115.5t-135 -50.5q-58 -66 -58 -115q0 -39 44 -39q33 0 61 19l16 -43q-41 -30 -91 -30q-92 0 -92 84z" />
    <glyph glyph-name="uogonek" unicode="&#x173;" 
d="M410 0h-1q-69 -74 -69 -126q0 -42 47 -42q33 0 61 19l17 -40q-43 -30 -91 -30q-92 0 -92 84q0 77 85 135h-17l-8 39q-86 -49 -153 -49q-62 0 -93.5 37.5t-31.5 105.5v407h76v-387q0 -93 72 -93q50 0 122 41v439h76v-540z" />
    <glyph glyph-name="Wcircumflex" unicode="&#x174;" horiz-adv-x="811" 
d="M702 720h80l-146 -720h-99l-132 607l-131 -607h-98l-147 720h80l119 -636l137 636h81l137 -634zM375 901h59l129 -142h-74l-84 87l-85 -87h-74z" />
    <glyph glyph-name="wcircumflex" unicode="&#x175;" horiz-adv-x="672" 
d="M28 540h79l89 -465l101 465h77l101 -465l90 465h79l-123 -540h-88l-97 440l-98 -440h-88zM306 741h59l129 -142h-74l-84 87l-85 -87h-74z" />
    <glyph glyph-name="Ycircumflex" unicode="&#x176;" horiz-adv-x="523" 
d="M302 0h-81v262l-199 458h86l153 -376l153 376h86l-198 -458v-262zM231 901h59l129 -142h-74l-84 87l-85 -87h-74z" />
    <glyph glyph-name="ycircumflex" unicode="&#x177;" horiz-adv-x="452" 
d="M348 540h84l-171 -567q-31 -99 -73 -130.5t-102 -31.5q-34 0 -50 5v66q14 -5 41 -5q40 0 67 22.5t44 84.5l4 16h-1l-169 540h83l124 -442zM208 741h59l129 -142h-74l-84 87l-85 -87h-74z" />
    <glyph glyph-name="Ydieresis" unicode="&#x178;" horiz-adv-x="523" 
d="M302 0h-81v262l-199 458h86l153 -376l153 376h86l-198 -458v-262zM208 759h-86v102h86v-102zM400 759h-86v102h86v-102z" />
    <glyph glyph-name="Zacute" unicode="&#x179;" horiz-adv-x="475" 
d="M26 53l314 598h-297v69h394v-53l-313 -599h321v-68h-419v53zM245 759h-55l93 163h100z" />
    <glyph glyph-name="zacute" unicode="&#x17a;" horiz-adv-x="404" 
d="M45 477v63h320v-53l-258 -424h268v-63h-350v53l251 424h-231zM226 599h-55l93 163h100z" />
    <glyph glyph-name="Zdotaccent" unicode="&#x17b;" horiz-adv-x="475" 
d="M26 53l314 598h-297v69h394v-53l-313 -599h321v-68h-419v53zM265 759h-83v111h83v-111z" />
    <glyph glyph-name="zdotaccent" unicode="&#x17c;" horiz-adv-x="404" 
d="M45 477v63h320v-53l-258 -424h268v-63h-350v53l251 424h-231zM247 599h-83v111h83v-111z" />
    <glyph glyph-name="Zcaron" unicode="&#x17d;" horiz-adv-x="475" 
d="M26 53l314 598h-297v69h394v-53l-313 -599h321v-68h-419v53zM252 761h-63l-123 154h80l75 -99l74 99h81z" />
    <glyph glyph-name="zcaron" unicode="&#x17e;" horiz-adv-x="404" 
d="M45 477v63h320v-53l-258 -424h268v-63h-350v53l251 424h-231zM233 601h-63l-123 154h80l75 -99l74 99h81z" />
    <glyph glyph-name="florin" unicode="&#x192;" horiz-adv-x="265" 
d="M271 750v-67q-22 10 -63 10q-53 0 -53 -49v-104h90v-63h-90v-623q0 -54 -32 -84t-91 -30q-45 0 -69 10v67q25 -10 63 -10q25 0 39 15t14 41v614h-50v63h50v107q0 54 32 83.5t91 29.5q45 0 69 -10z" />
    <glyph glyph-name="AEacute" unicode="&#x1fc;" horiz-adv-x="811" 
d="M90 0h-85l382 720h384v-69h-274v-244h215v-69h-215v-270h274v-68h-355v170h-237zM215 239h201v384zM488 756h-55l93 163h100z" />
    <glyph glyph-name="aeacute" unicode="&#x1fd;" horiz-adv-x="729" 
d="M66 375v36q0 67 40.5 103t119.5 36q100 0 140 -54q40 54 127 54t135.5 -41t48.5 -115v-156h-286v-88q4 -94 102 -94q108 0 108 105v19h76v-34q0 -74 -48.5 -115t-135.5 -41q-90 0 -129 56q-86 -56 -186 -56q-69 0 -105 36t-36 103v26q0 139 146 139q69 0 132 -26v131
q0 85 -88 85t-88 -85v-24h-73zM391 389v-89h210v79q0 105 -108 105q-50 0 -75 -23t-27 -72zM195 50q63 0 120 30v128q-49 26 -118 26q-42 0 -61 -19t-19 -61v-25q0 -79 78 -79zM390 603h-55l93 163h100z" />
    <glyph glyph-name="Oslashacute" unicode="&#x1fe;" horiz-adv-x="570" 
d="M285 730q98 0 156 -41l30 53h56l-50 -89q25 -39 25 -89v-408q0 -79 -57 -122.5t-160 -43.5q-101 0 -157 41l-27 -48h-56l47 85q-24 36 -24 88v408q0 79 57 122.5t160 43.5zM421 539q0 9 -1 13l-251 -448q30 -42 116 -42q71 0 103.5 28t32.5 91v358zM285 658
q-71 0 -103.5 -28t-32.5 -91v-370l251 447q-30 42 -115 42zM322 769h-55l93 163h100z" />
    <glyph glyph-name="oslashacute" unicode="&#x1ff;" horiz-adv-x="476" 
d="M105 -22h-66l42 75q-24 35 -24 86v262q0 71 47 110t135 39q66 0 109 -23l22 38h62l-41 -74q28 -36 28 -90v-262q0 -71 -46.5 -110t-133.5 -39q-68 0 -114 24zM343 383q0 14 -1 20l-180 -323q26 -21 77 -21q104 0 104 98v226zM133 383v-238l178 316q-26 20 -72 20
q-106 0 -106 -98zM259 609h-55l93 163h100z" />
    <glyph glyph-name="Scommaaccent" unicode="&#x218;" horiz-adv-x="512" 
d="M467 218v-53q0 -175 -189 -175h-52q-89 0 -133 34.5t-44 111.5v83h80v-61q0 -55 23 -75.5t76 -20.5h46q58 0 85 20t27 84v53q0 44 -21.5 69.5t-73.5 37.5l-97 21q-71 15 -102.5 51t-31.5 120v46q0 82 45.5 124t132.5 42h23q86 0 135 -38.5t49 -107.5v-79h-79v63
q0 93 -104 93h-21q-53 0 -77 -23t-24 -80v-35q0 -53 15.5 -72.5t67.5 -31.5l91 -20q86 -20 119.5 -61t33.5 -120z" />
    <glyph glyph-name="scommaaccent" unicode="&#x219;" horiz-adv-x="440" 
d="M394 180v-49q0 -77 -44.5 -109t-133.5 -32q-172 0 -172 129v61h73v-53q0 -41 25 -56t73 -15q53 0 79 15.5t26 58.5v44q0 52 -64 63l-82 15q-70 12 -95 40.5t-25 101.5v31q0 125 166 125q80 0 122.5 -31.5t42.5 -90.5v-56h-73v51q0 64 -89 64q-51 0 -74 -15t-23 -49v-29
q0 -41 15 -54t60 -22l75 -14q64 -11 91 -38.5t27 -85.5zM281 -63l-64 -188h-56l34 188h86z" />
    <glyph glyph-name="dotlessj" unicode="&#x237;" horiz-adv-x="217" 
d="M73 540h76v-526q0 -108 -32.5 -156t-110.5 -48q-22 0 -43 4v65q36 -3 39 -3q38 0 54.5 32t16.5 106v526z" />
    <glyph glyph-name="circumflex" unicode="&#x2c6;" horiz-adv-x="538" 
d="M230 692h59l129 -142h-74l-84 87l-85 -87h-74z" />
    <glyph glyph-name="caron" unicode="&#x2c7;" horiz-adv-x="544" 
d="M290 552h-63l-123 154h80l75 -99l74 99h81z" />
    <glyph glyph-name="uni02C9" unicode="&#x2c9;" horiz-adv-x="222" 
 />
    <glyph glyph-name="breve" unicode="&#x2d8;" horiz-adv-x="401" 
d="M67 713h64v-8q0 -66 67 -66t67 66v8h64v-20q0 -53 -33 -81.5t-98 -28.5t-98 28.5t-33 81.5v20z" />
    <glyph glyph-name="dotaccent" unicode="&#x2d9;" horiz-adv-x="314" 
d="M172 570h-83v111h83v-111z" />
    <glyph glyph-name="ring" unicode="&#x2da;" horiz-adv-x="391" 
d="M308 657v-29q0 -90 -111 -90t-111 90v29q0 90 111 90t111 -90zM141 641q0 -56 56 -56t56 56v4q0 56 -56 56t-56 -56v-4z" />
    <glyph glyph-name="ogonek" unicode="&#x2db;" horiz-adv-x="836" 
d="M77 -132q0 74 77 132h51q-66 -72 -66 -123q0 -39 44 -39q33 0 61 19l16 -43q-41 -30 -91 -30q-92 0 -92 84z" />
    <glyph glyph-name="tilde" unicode="&#x2dc;" horiz-adv-x="433" 
d="M298 687h58q-1 -54 -23 -83t-61 -29q-30 0 -60 26.5t-43 26.5q-15 0 -24 -14.5t-9 -39.5h-57q1 53 24.5 82.5t60.5 29.5q25 0 45.5 -13t34.5 -26.5t23 -13.5q31 0 31 54z" />
    <glyph glyph-name="hungarumlaut" unicode="&#x2dd;" horiz-adv-x="552" 
d="M194 550h-55l93 163h100zM338 550h-55l93 163h100z" />
    <glyph glyph-name="uni03A9" unicode="&#x3a9;" horiz-adv-x="588" 
 />
    <glyph glyph-name="Wgrave" unicode="&#x1e80;" horiz-adv-x="811" 
d="M702 720h80l-146 -720h-99l-132 607l-131 -607h-98l-147 720h80l119 -636l137 636h81l137 -634zM444 759h-55l-145 163h100z" />
    <glyph glyph-name="wgrave" unicode="&#x1e81;" horiz-adv-x="672" 
d="M28 540h79l89 -465l101 465h77l101 -465l90 465h79l-123 -540h-88l-97 440l-98 -440h-88zM375 599h-55l-145 163h100z" />
    <glyph glyph-name="Wacute" unicode="&#x1e82;" horiz-adv-x="811" 
d="M702 720h80l-146 -720h-99l-132 607l-131 -607h-98l-147 720h80l119 -636l137 636h81l137 -634zM428 759h-55l93 163h100z" />
    <glyph glyph-name="wacute" unicode="&#x1e83;" horiz-adv-x="672" 
d="M28 540h79l89 -465l101 465h77l101 -465l90 465h79l-123 -540h-88l-97 440l-98 -440h-88zM359 599h-55l93 163h100z" />
    <glyph glyph-name="Wdieresis" unicode="&#x1e84;" horiz-adv-x="811" 
d="M702 720h80l-146 -720h-99l-132 607l-131 -607h-98l-147 720h80l119 -636l137 636h81l137 -634zM352 759h-86v102h86v-102zM544 759h-86v102h86v-102z" />
    <glyph glyph-name="wdieresis" unicode="&#x1e85;" horiz-adv-x="672" 
d="M28 540h79l89 -465l101 465h77l101 -465l90 465h79l-123 -540h-88l-97 440l-98 -440h-88zM283 599h-86v102h86v-102zM475 599h-86v102h86v-102z" />
    <glyph glyph-name="Ygrave" unicode="&#x1ef2;" horiz-adv-x="523" 
d="M302 0h-81v262l-199 458h86l153 -376l153 376h86l-198 -458v-262zM300 759h-55l-145 163h100z" />
    <glyph glyph-name="ygrave" unicode="&#x1ef3;" horiz-adv-x="452" 
d="M348 540h84l-171 -567q-31 -99 -73 -130.5t-102 -31.5q-34 0 -50 5v66q14 -5 41 -5q40 0 67 22.5t44 84.5l4 16h-1l-169 540h83l124 -442zM277 599h-55l-145 163h100z" />
    <glyph glyph-name="thinspace" unicode="&#x2009;" horiz-adv-x="70" 
 />
    <glyph glyph-name="uni2010" unicode="&#x2010;" horiz-adv-x="315" 
 />
    <glyph glyph-name="endash" unicode="&#x2013;" horiz-adv-x="459" 
d="M402 407v-67h-346v67h346z" />
    <glyph glyph-name="emdash" unicode="&#x2014;" horiz-adv-x="510" 
d="M454 407v-67h-398v67h398z" />
    <glyph glyph-name="quoteleft" unicode="&#x2018;" horiz-adv-x="204" 
d="M122 720h52l-35 -214h-92z" />
    <glyph glyph-name="quoteright" unicode="&#x2019;" horiz-adv-x="204" 
d="M82 506h-52l35 214h92z" />
    <glyph glyph-name="quotesinglbase" unicode="&#x201a;" horiz-adv-x="205" 
d="M82 -102h-52l35 214h92z" />
    <glyph glyph-name="quotedblleft" unicode="&#x201c;" horiz-adv-x="330" 
d="M122 720h52l-35 -214h-92zM248 720h52l-35 -214h-92z" />
    <glyph glyph-name="quotedblright" unicode="&#x201d;" horiz-adv-x="330" 
d="M82 506h-52l35 214h92zM208 506h-52l35 214h92z" />
    <glyph glyph-name="quotedblbase" unicode="&#x201e;" horiz-adv-x="330" 
d="M82 -102h-52l35 214h92zM208 -102h-52l35 214h92z" />
    <glyph glyph-name="dagger" unicode="&#x2020;" horiz-adv-x="506" 
d="M288 -180h-70v654h-171v66h171v180h70v-180h171v-66h-171v-654z" />
    <glyph glyph-name="daggerdbl" unicode="&#x2021;" horiz-adv-x="506" 
d="M218 66v408h-171v66h171v180h70v-180h171v-66h-171v-408h171v-66h-171v-180h-70v180h-171v66h171z" />
    <glyph glyph-name="bullet" unicode="&#x2022;" horiz-adv-x="294" 
d="M75 291q0 27 21 46t51 19t51 -19t21 -46t-21.5 -46t-50.5 -19q-30 0 -51 19t-21 46z" />
    <glyph glyph-name="ellipsis" unicode="&#x2026;" horiz-adv-x="639" 
d="M142 0h-83v111h83v-111zM362 0h-83v111h83v-111zM582 0h-83v111h83v-111z" />
    <glyph glyph-name="perthousand" unicode="&#x2030;" horiz-adv-x="1390" 
d="M368 -20h-71l336 760h70zM353 616v-288q0 -54 -40.5 -84.5t-110.5 -30.5t-111 30.5t-41 84.5v288q0 54 41 84.5t111 30.5t110.5 -30.5t40.5 -84.5zM202 277q78 0 78 64v262q0 64 -78 64q-79 0 -79 -64v-262q0 -64 79 -64zM966 396v-288q0 -54 -40.5 -84.5t-110.5 -30.5
t-111 30.5t-41 84.5v288q0 54 41 84.5t111 30.5t110.5 -30.5t40.5 -84.5zM815 57q78 0 78 64v262q0 64 -78 64q-79 0 -79 -64v-262q0 -64 79 -64zM1340 396v-288q0 -54 -40.5 -84.5t-110.5 -30.5t-111 30.5t-41 84.5v288q0 54 41 84.5t111 30.5t110.5 -30.5t40.5 -84.5z
M1189 57q78 0 78 64v262q0 64 -78 64q-79 0 -79 -64v-262q0 -64 79 -64z" />
    <glyph glyph-name="guilsinglleft" unicode="&#x2039;" horiz-adv-x="274" 
d="M38 314l113 168h77l-124 -194l-2 -1h2l124 -193h-77l-113 168v52z" />
    <glyph glyph-name="guilsinglright" unicode="&#x203a;" horiz-adv-x="274" 
d="M123 482l113 -168v-52l-113 -168h-77l124 193h2l-2 1l-124 194h77z" />
    <glyph glyph-name="fraction" unicode="&#x2044;" horiz-adv-x="236" 
d="M-14 -20h-71l336 760h70z" />
    <glyph glyph-name="zerosuperior" unicode="&#x2070;" horiz-adv-x="405" 
d="M354 616v-288q0 -54 -40.5 -84.5t-110.5 -30.5t-111 30.5t-41 84.5v288q0 54 41 84.5t111 30.5t110.5 -30.5t40.5 -84.5zM203 277q78 0 78 64v262q0 64 -78 64q-79 0 -79 -64v-262q0 -64 79 -64z" />
    <glyph glyph-name="foursuperior" unicode="&#x2074;" horiz-adv-x="372" 
d="M286 220h-72v101h-193v47l204 356h61v-343h60v-60h-60v-101zM96 381h118v213z" />
    <glyph glyph-name="fivesuperior" unicode="&#x2075;" horiz-adv-x="364" 
d="M310 724v-60h-180l-3 -130l61 1q137 1 137 -127v-67q0 -68 -34.5 -98t-101.5 -30h-24q-66 0 -97.5 25t-31.5 81v53h68v-29q0 -38 15.5 -52t47.5 -14h24q33 0 49 14.5t16 50.5v65q0 65 -69 65h-129l7 252h245z" />
    <glyph glyph-name="sixsuperior" unicode="&#x2076;" horiz-adv-x="392" 
d="M214 526q65 0 99 -26.5t34 -75.5v-101q0 -52 -40 -81t-110 -29q-69 0 -107.5 28.5t-38.5 80.5v300q0 51 40 80t109 29q68 0 107.5 -28t39.5 -78v-51h-72v35q0 58 -75 58q-76 0 -76 -62v-107q33 28 90 28zM203 466q-76 0 -79 -56v-71q0 -62 74 -62q77 0 77 62v65
q0 62 -72 62z" />
    <glyph glyph-name="sevensuperior" unicode="&#x2077;" horiz-adv-x="321" 
d="M22 664v60h279v-50l-176 -454h-72l171 444h-202z" />
    <glyph glyph-name="eightsuperior" unicode="&#x2078;" horiz-adv-x="393" 
d="M197 731q66 0 104 -28t38 -78v-50q0 -63 -56 -87q67 -26 67 -91v-75q0 -51 -41 -80t-112 -29q-72 0 -113 29t-41 80v75q0 65 67 91q-56 25 -56 87v50q0 51 38 78.5t105 27.5zM197 462q-82 0 -82 -64v-65q0 -63 82 -63t82 63v65q0 64 -82 64zM197 674q-74 0 -74 -56v-47
q0 -55 74 -55t74 55v47q0 56 -74 56z" />
    <glyph glyph-name="ninesuperior" unicode="&#x2079;" horiz-adv-x="392" 
d="M178 417q-65 0 -99 27t-34 76v101q0 52 40 81t109 29q70 0 108.5 -28.5t38.5 -80.5v-300q0 -51 -40 -80t-109 -29q-68 0 -107.5 28t-39.5 78v51h72v-35q0 -58 75 -58q76 0 76 62v106q-34 -28 -90 -28zM268 605q0 62 -75 62q-76 0 -76 -62v-65q0 -62 72 -62q74 0 79 56v71
z" />
    <glyph glyph-name="zeroinferior" unicode="&#x2080;" horiz-adv-x="405" 
d="M354 166v-288q0 -54 -40.5 -84.5t-110.5 -30.5t-111 30.5t-41 84.5v288q0 54 41 84.5t111 30.5t110.5 -30.5t40.5 -84.5zM203 -173q78 0 78 64v262q0 64 -78 64q-79 0 -79 -64v-262q0 -64 79 -64z" />
    <glyph glyph-name="oneinferior" unicode="&#x2081;" horiz-adv-x="231" 
d="M174 -230h-70v424l-81 -31v64l102 47h49v-504z" />
    <glyph glyph-name="twoinferior" unicode="&#x2082;" horiz-adv-x="370" 
d="M334 -170v-60h-295v31q0 132 84 195q11 9 53.5 35.5t60.5 48.5t18 55v22q0 63 -63 63h-16q-63 0 -63 -55v-46h-69v60q0 49 35 75.5t100 26.5h13q66 0 100.5 -30t34.5 -87v-29q0 -52 -26 -85.5t-100 -79.5q-86 -52 -93 -140h226z" />
    <glyph glyph-name="threeinferior" unicode="&#x2083;" horiz-adv-x="377" 
d="M141 6v55h45q70 0 70 64v36q0 31 -14.5 45t-45.5 14h-13q-65 0 -65 -55v-40h-66v57q0 47 34 73t98 26h13q130 0 130 -113v-44q0 -61 -61 -81q68 -20 68 -95v-57q0 -68 -34.5 -98t-102.5 -30h-33q-65 0 -96.5 24t-31.5 78v56h67v-38q0 -56 65 -56h29q69 0 69 64v55
q0 60 -68 60h-57z" />
    <glyph glyph-name="fourinferior" unicode="&#x2084;" horiz-adv-x="372" 
d="M286 -230h-72v101h-193v47l204 356h61v-343h60v-60h-60v-101zM96 -69h118v213z" />
    <glyph glyph-name="fiveinferior" unicode="&#x2085;" horiz-adv-x="364" 
d="M310 274v-60h-180l-3 -130l61 1q137 1 137 -127v-67q0 -68 -34.5 -98t-101.5 -30h-24q-66 0 -97.5 25t-31.5 81v53h68v-29q0 -38 15.5 -52t47.5 -14h24q33 0 49 14.5t16 50.5v65q0 65 -69 65h-129l7 252h245z" />
    <glyph glyph-name="sixinferior" unicode="&#x2086;" horiz-adv-x="392" 
d="M214 76q65 0 99 -26.5t34 -75.5v-101q0 -52 -40 -81t-110 -29q-69 0 -107.5 28.5t-38.5 80.5v300q0 51 40 80t109 29q68 0 107.5 -28t39.5 -78v-51h-72v35q0 58 -75 58q-76 0 -76 -62v-107q33 28 90 28zM203 16q-76 0 -79 -56v-71q0 -62 74 -62q77 0 77 62v65
q0 62 -72 62z" />
    <glyph glyph-name="seveninferior" unicode="&#x2087;" horiz-adv-x="321" 
d="M22 214v60h279v-50l-176 -454h-72l171 444h-202z" />
    <glyph glyph-name="eightinferior" unicode="&#x2088;" horiz-adv-x="393" 
d="M197 281q66 0 104 -28t38 -78v-50q0 -63 -56 -87q67 -26 67 -91v-75q0 -51 -41 -80t-112 -29q-72 0 -113 29t-41 80v75q0 65 67 91q-56 25 -56 87v50q0 51 38 78.5t105 27.5zM197 12q-82 0 -82 -64v-65q0 -63 82 -63t82 63v65q0 64 -82 64zM197 224q-74 0 -74 -56v-47
q0 -55 74 -55t74 55v47q0 56 -74 56z" />
    <glyph glyph-name="nineinferior" unicode="&#x2089;" horiz-adv-x="392" 
d="M178 -33q-65 0 -99 27t-34 76v101q0 52 40 81t109 29q70 0 108.5 -28.5t38.5 -80.5v-300q0 -51 -40 -80t-109 -29q-68 0 -107.5 28t-39.5 78v51h72v-35q0 -58 75 -58q76 0 76 62v106q-34 -28 -90 -28zM268 155q0 62 -75 62q-76 0 -76 -62v-65q0 -62 72 -62q74 0 79 56v71
z" />
    <glyph glyph-name="Euro" unicode="&#x20ac;" horiz-adv-x="598" 
d="M199 164q0 -54 32 -78t101 -24q134 0 134 102v96h76v-114q0 -74 -57.5 -115t-155.5 -41t-154.5 41t-56.5 115v125h-81v60h81v53h-81v59h81v131q0 74 57.5 115t156.5 41q98 0 154 -41t56 -115v-114h-76v96q0 50 -36 76t-98 26q-133 0 -133 -102v-113h109v-59h-109v-53h109
v-60h-109v-107z" />
    <glyph glyph-name="trademark" unicode="&#x2122;" horiz-adv-x="709" 
d="M389 299h-60v421h54l103 -232l102 229v3h55v-421h-60v269l-72 -152h-50l-72 152v-269zM195 299h-60v366h-106v55h272v-55h-106v-366z" />
    <glyph glyph-name="minus" unicode="&#x2212;" horiz-adv-x="519" 
d="M458 407v-67h-398v67h398z" />
    <glyph glyph-name="commaaccent" unicode="&#xf6c3;" horiz-adv-x="240" 
d="M180 -63l-64 -188h-56l34 188h86z" />
    <glyph glyph-name="zerooldstyle" unicode="&#xf730;" horiz-adv-x="466" 
d="M408 410v-279q0 -66 -47 -103t-128 -37q-82 0 -128.5 37t-46.5 103v279q0 66 46.5 103t128.5 37q81 0 128 -37t47 -103zM233 56q50 0 76 23t26 62v259q0 39 -26 62t-76 23t-76 -23t-26 -62v-259q0 -39 26 -62t76 -23z" />
    <glyph glyph-name="oneoldstyle" unicode="&#xf731;" horiz-adv-x="273" 
d="M204 0h-69v471l-107 -41v65l128 55h48v-550z" />
    <glyph glyph-name="twooldstyle" unicode="&#xf732;" horiz-adv-x="432" 
d="M388 60v-60h-341v31q0 143 94 209q16 12 67 39t75 52.5t24 61.5v24q0 73 -85 73h-15q-85 0 -85 -63v-54h-69v68q0 52 40.5 80.5t113.5 28.5h15q157 0 157 -125v-32q0 -56 -31.5 -92.5t-119.5 -83.5q-60 -32 -85 -70t-28 -87h273z" />
    <glyph glyph-name="threeoldstyle" unicode="&#xf733;" horiz-adv-x="442" 
d="M170 205v57h48q94 0 94 89v52q0 84 -81 84h-17q-86 0 -86 -77v-57h-67v71q0 60 40 92.5t114 32.5h15q153 0 153 -140v-59q0 -82 -76 -107q84 -25 84 -122v-81q0 -84 -40 -120.5t-121 -36.5h-39q-75 0 -112.5 31t-37.5 100v61h69v-46q0 -43 20.5 -62t62.5 -19h35
q46 0 69.5 20.5t23.5 70.5v80q0 86 -87 86h-64z" />
    <glyph glyph-name="fouroldstyle" unicode="&#xf734;" horiz-adv-x="451" 
d="M351 -137h-73v137h-254v47l264 503h63v-489h72v-61h-72v-137zM100 61h178v345z" />
    <glyph glyph-name="fiveoldstyle" unicode="&#xf735;" horiz-adv-x="424" 
d="M363 550v-62h-219l-5 -191l81 1q158 1 158 -156v-92q0 -83 -40 -120t-117 -37h-29q-76 0 -112.5 32.5t-36.5 105.5v65h69v-42q0 -54 20.5 -75t61.5 -21h28q42 0 64 22t22 72v88q0 94 -89 94h-151l8 316h287z" />
    <glyph glyph-name="sixoldstyle" unicode="&#xf736;" horiz-adv-x="462" 
d="M252 389q76 0 115.5 -35.5t39.5 -99.5v-122q0 -66 -46.5 -103.5t-127.5 -37.5q-80 0 -124 36.5t-44 103.5v386q0 66 45.5 103t125.5 37q79 0 125 -35.5t46 -98.5v-68h-72v52q0 85 -99 85t-99 -92v-153q39 42 115 42zM241 327q-47 0 -75 -22.5t-29 -65.5v-91q0 -92 99 -92
t99 92v87q0 92 -94 92z" />
    <glyph glyph-name="sevenoldstyle" unicode="&#xf737;" horiz-adv-x="373" 
d="M24 478v62h326v-50l-211 -598h-71l205 586h-249z" />
    <glyph glyph-name="eightoldstyle" unicode="&#xf738;" horiz-adv-x="464" 
d="M232 657q77 0 121.5 -35.5t44.5 -98.5v-66q0 -82 -70 -112q84 -36 84 -122v-92q0 -66 -48 -103t-132 -37t-132 37t-48 103v92q0 88 84 122q-70 33 -70 112v66q0 63 44.5 98.5t121.5 35.5zM232 317q-108 0 -108 -96v-77q0 -94 108 -94q107 0 107 94v77q0 49 -26 72.5
t-81 23.5zM232 598q-96 0 -96 -83v-61q0 -80 96 -80q95 0 95 80v61q0 83 -95 83z" />
    <glyph glyph-name="nineoldstyle" unicode="&#xf739;" horiz-adv-x="455" 
d="M208 151q-76 0 -115.5 35t-39.5 100v122q0 67 46 104t127 37q80 0 124.5 -36.5t44.5 -103.5v-386q0 -66 -46 -103t-126 -37q-78 0 -124 35.5t-46 98.5v68h72v-52q0 -85 98 -85q99 0 99 92v152q-38 -41 -114 -41zM322 392q0 92 -98 92q-99 0 -99 -92v-87q0 -92 93 -92
q49 0 76.5 23.5t27.5 68.5v87z" />
    <glyph glyph-name="ampersand.001" horiz-adv-x="588" 
d="M562 47l-49 -47l-56 64q-26 -25 -43.5 -38t-49 -24.5t-70.5 -11.5h-85q-81 0 -126 41t-45 115v119q0 112 134 134q-47 65 -47 131v44q0 73 46.5 114.5t126.5 41.5q82 0 128 -41t46 -115v-77q0 -56 -44 -95.5t-123 -51.5l156 -185l55 51l46 -50l-56 -54zM285 59
q38 0 66.5 14.5t58.5 44.5l1 1l-193 225q-102 -9 -102 -90v-97q0 -45 29 -71.5t76 -26.5h64zM199 523q0 -46 59 -118q67 4 103 34t36 68v49q0 55 -23 80t-76 25q-99 0 -99 -98v-40z" />
    <glyph glyph-name="a.superior" horiz-adv-x="356" 
d="M36 438v15q0 99 100 99q50 0 95 -15v81q0 14 -3 24t-15.5 18.5t-35.5 8.5q-54 0 -54 -51v-17h-67v31q0 46 30 72.5t91 26.5q64 0 94.5 -26.5t30.5 -72.5v-286h-60l-5 23q-49 -30 -103 -30q-98 0 -98 99zM157 387q42 0 74 21v80q-30 15 -73 15q-52 0 -52 -49v-17
q0 -50 51 -50z" />
    <glyph glyph-name="o.superior" horiz-adv-x="365" 
d="M316 625v-182q0 -50 -35 -77.5t-99 -27.5t-99 27.5t-35 77.5v182q0 50 35 77.5t99 27.5t99 -27.5t35 -77.5zM117 607v-147q0 -59 65 -59q64 0 64 59v147q0 60 -64 60q-65 0 -65 -60z" />
    <glyph glyph-name="undercommaaccent" horiz-adv-x="240" 
d="M180 -63l-64 -188h-56l34 188h86z" />
    <glyph glyph-name="zero.sm" horiz-adv-x="405" 
d="M354 396v-288q0 -54 -40.5 -84.5t-110.5 -30.5t-111 30.5t-41 84.5v288q0 54 41 84.5t111 30.5t110.5 -30.5t40.5 -84.5zM203 57q78 0 78 64v262q0 64 -78 64q-79 0 -79 -64v-262q0 -64 79 -64z" />
    <glyph glyph-name="one.sm" horiz-adv-x="231" 
d="M174 0h-70v424l-81 -31v64l102 47h49v-504z" />
    <glyph glyph-name="two.sm" horiz-adv-x="370" 
d="M334 60v-60h-295v31q0 132 84 195q11 9 53.5 35.5t60.5 48.5t18 55v22q0 63 -63 63h-16q-63 0 -63 -55v-46h-69v60q0 49 35 75.5t100 26.5h13q66 0 100.5 -30t34.5 -87v-29q0 -52 -26 -85.5t-100 -79.5q-86 -52 -93 -140h226z" />
    <glyph glyph-name="three.sm" horiz-adv-x="377" 
d="M141 236v55h45q70 0 70 64v36q0 31 -14.5 45t-45.5 14h-13q-65 0 -65 -55v-40h-66v57q0 47 34 73t98 26h13q130 0 130 -113v-44q0 -61 -61 -81q68 -20 68 -95v-57q0 -68 -34.5 -98t-102.5 -30h-33q-65 0 -96.5 24t-31.5 78v56h67v-38q0 -56 65 -56h29q69 0 69 64v55
q0 60 -68 60h-57z" />
    <glyph glyph-name="four.sm" horiz-adv-x="372" 
d="M286 0h-72v101h-193v47l204 356h61v-343h60v-60h-60v-101zM96 161h118v213z" />
    <glyph glyph-name="five.sm" horiz-adv-x="364" 
d="M310 504v-60h-180l-3 -130l61 1q137 1 137 -127v-67q0 -68 -34.5 -98t-101.5 -30h-24q-66 0 -97.5 25t-31.5 81v53h68v-29q0 -38 15.5 -52t47.5 -14h24q33 0 49 14.5t16 50.5v65q0 65 -69 65h-129l7 252h245z" />
    <glyph glyph-name="six.sm" horiz-adv-x="392" 
d="M214 306q65 0 99 -26.5t34 -75.5v-101q0 -52 -40 -81t-110 -29q-69 0 -107.5 28.5t-38.5 80.5v300q0 51 40 80t109 29q68 0 107.5 -28t39.5 -78v-51h-72v35q0 58 -75 58q-76 0 -76 -62v-107q33 28 90 28zM203 246q-76 0 -79 -56v-71q0 -62 74 -62q77 0 77 62v65
q0 62 -72 62z" />
    <glyph glyph-name="seven.sm" horiz-adv-x="321" 
d="M22 444v60h279v-50l-176 -454h-72l171 444h-202z" />
    <glyph glyph-name="eight.sm" horiz-adv-x="393" 
d="M197 511q66 0 104 -28t38 -78v-50q0 -63 -56 -87q67 -26 67 -91v-75q0 -51 -41 -80t-112 -29q-72 0 -113 29t-41 80v75q0 65 67 91q-56 25 -56 87v50q0 51 38 78.5t105 27.5zM197 242q-82 0 -82 -64v-65q0 -63 82 -63t82 63v65q0 64 -82 64zM197 454q-74 0 -74 -56v-47
q0 -55 74 -55t74 55v47q0 56 -74 56z" />
    <glyph glyph-name="nine.sm" horiz-adv-x="392" 
d="M178 197q-65 0 -99 27t-34 76v101q0 52 40 81t109 29q70 0 108.5 -28.5t38.5 -80.5v-300q0 -51 -40 -80t-109 -29q-68 0 -107.5 28t-39.5 78v51h72v-35q0 -58 75 -58q76 0 76 62v106q-34 -28 -90 -28zM268 385q0 62 -75 62q-76 0 -76 -62v-65q0 -62 72 -62q74 0 79 56v71
z" />
    <glyph glyph-name="a.ital" horiz-adv-x="479" 
d="M413 0h-66l-9 32q-64 -39 -131 -39q-71 0 -109.5 40.5t-38.5 108.5v266q0 67 38 104.5t108 37.5t134 -37l8 37h66v-550zM224 62q50 0 113 35v345q-61 39 -116 39q-40 0 -63 -22t-23 -65v-231q0 -47 22.5 -74t66.5 -27z" />
    <glyph glyph-name="f.ital" horiz-adv-x="293" 
d="M285 750v-66q-22 10 -58 10q-37 0 -54.5 -18t-17.5 -59v-77h120v-63h-120v-477q-2 -100 -34.5 -145t-107.5 -45q-21 0 -44 4v65q36 -3 40 -3q38 0 54 31.5t16 106.5v463h-50v63h50v79q0 141 143 141q39 0 63 -10z" />
    <glyph glyph-name="e.ital" horiz-adv-x="469" 
d="M235 238h-102v-77q0 -54 25 -79.5t77 -25.5q108 0 108 105v19h76v-34q0 -74 -48.5 -115t-135.5 -41q-85 0 -131.5 41t-46.5 115v248q0 74 46.5 115t131.5 41q87 0 135.5 -37t48.5 -105v-28q0 -68 -48.5 -105t-135.5 -37zM133 379v-78h102q108 0 108 87v10q0 86 -108 86
q-102 0 -102 -105z" />
    <glyph glyph-name="A.SC" horiz-adv-x="459" 
d="M90 0h-72l170 576h83l170 -576h-73l-37 133h-204zM230 496l-84 -298h167z" />
    <glyph glyph-name="B.SC" horiz-adv-x="443" 
d="M227 0h-158v576h144q163 0 163 -132v-32q0 -72 -71 -97q95 -25 95 -116v-56q0 -72 -45.5 -107.5t-127.5 -35.5zM227 279h-85v-218h85q49 0 76 22.5t27 67.5v45q0 83 -103 83zM213 515h-71v-180h71q93 0 93 76v21q0 83 -93 83z" />
    <glyph glyph-name="C.SC" horiz-adv-x="460" 
d="M135 138q0 -43 24.5 -62.5t76.5 -19.5q99 0 99 82v70h70v-91q0 -59 -45.5 -92t-123.5 -33q-81 0 -127.5 33t-46.5 92v342q0 59 46.5 92t127.5 33q78 0 123.5 -33t45.5 -92v-91h-70v70q0 40 -26.5 61t-72.5 21q-101 0 -101 -82v-300z" />
    <glyph glyph-name="D.SC" horiz-adv-x="474" 
d="M69 0v576h134q110 0 160.5 -41.5t50.5 -123.5v-262q0 -77 -47.5 -113t-155.5 -36h-142zM344 160v246q0 106 -141 106h-61v-448h69q67 0 100 21.5t33 74.5z" />
    <glyph glyph-name="E.SC" horiz-adv-x="400" 
d="M313 328v-61h-171v-206h218v-61h-291v576h291v-61h-218v-187h171z" />
    <glyph glyph-name="F.SC" horiz-adv-x="385" 
d="M142 0h-73v576h291v-61h-218v-211h171v-61h-171v-243z" />
    <glyph glyph-name="G.SC" horiz-adv-x="467" 
d="M411 0h-39l-14 38q-38 -46 -120 -46t-129 33t-47 92v342q0 59 47 92t129 33q80 0 126.5 -33t46.5 -92v-91h-69v75q0 37 -28 57t-76 20q-103 0 -103 -77v-306q0 -81 103 -81q47 0 75 19.5t29 57.5v92h-104v61h173v-286z" />
    <glyph glyph-name="H.SC" horiz-adv-x="483" 
d="M142 0h-73v576h73v-248h199v248h73v-576h-73v267h-199v-267z" />
    <glyph glyph-name="I.SC" horiz-adv-x="211" 
d="M142 0h-73v576h73v-576z" />
    <glyph glyph-name="J.SC" horiz-adv-x="446" 
d="M308 576h73v-436q0 -73 -45.5 -110.5t-130.5 -37.5q-80 0 -126.5 33t-46.5 92v80h70v-67q0 -36 27.5 -55t75.5 -19q103 0 103 86v434z" />
    <glyph glyph-name="K.SC" horiz-adv-x="427" 
d="M142 0h-73v576h73v-264l183 264h77l-190 -279l201 -297h-82l-189 276v-276z" />
    <glyph glyph-name="L.SC" horiz-adv-x="369" 
d="M350 61v-61h-281v576h73v-515h208z" />
    <glyph glyph-name="M.SC" horiz-adv-x="599" 
d="M324 196h-49l-139 259l3 -49v-406h-70v576h76l154 -293l156 293h75v-576h-69v405l2 54z" />
    <glyph glyph-name="N.SC" horiz-adv-x="501" 
d="M432 0h-58l-239 421l1 -21v-400h-67v576h59l239 -421l-1 28v393h66v-576z" />
    <glyph glyph-name="O.SC" 
d="M238 584q84 0 130 -35t46 -98v-326q0 -63 -46 -98t-130 -35q-83 0 -129.5 35t-46.5 98v326q0 63 46.5 98t129.5 35zM238 520q-54 0 -78.5 -21t-24.5 -69v-284q0 -48 24.5 -69t78.5 -21t79 21t25 69v284q0 48 -25 69t-79 21z" />
    <glyph glyph-name="P.SC" horiz-adv-x="422" 
d="M142 0h-73v576h137q96 0 138 -40t42 -117v-51q0 -72 -42 -109t-138 -37h-64v-222zM210 515h-68v-232h64q108 0 108 93v39q0 100 -104 100z" />
    <glyph glyph-name="Q.SC" 
d="M238 584q84 0 130 -35t46 -98v-326q0 -97 -104 -125l85 -102l-49 -39l-108 133q-83 0 -129.5 35t-46.5 98v326q0 63 46.5 98t129.5 35zM238 520q-54 0 -78.5 -21t-24.5 -69v-284q0 -48 24.5 -69t78.5 -21t79 21t25 69v284q0 48 -25 69t-79 21z" />
    <glyph glyph-name="R.SC" horiz-adv-x="437" 
d="M142 0h-73v576h131q95 0 137.5 -40t42.5 -117v-51q0 -109 -97 -136l137 -232h-81l-128 222h-69v-222zM204 515h-62v-232h58q107 0 107 93v39q0 100 -103 100z" />
    <glyph glyph-name="S.SC" horiz-adv-x="435" 
d="M392 174v-39q0 -143 -157 -143h-43q-146 0 -146 117v67h71v-46q0 -43 18 -58.5t60 -15.5h37q46 0 66.5 15t20.5 65v40q0 33 -16.5 52t-58.5 28l-77 17q-60 13 -86 42.5t-26 98.5v35q0 66 38 100.5t110 34.5h18q71 0 111.5 -30.5t40.5 -86.5v-62h-71v47q0 71 -80 71h-17
q-41 0 -59.5 -17.5t-18.5 -61.5v-26q0 -41 12.5 -56t52.5 -24l72 -16q72 -16 100 -49t28 -99z" />
    <glyph glyph-name="T.SC" horiz-adv-x="383" 
d="M228 0h-73v515h-133v61h339v-61h-133v-515z" />
    <glyph glyph-name="U.SC" horiz-adv-x="483" 
d="M345 576h73v-447q0 -65 -47 -101t-129 -36t-129.5 36t-47.5 101v447h73v-428q0 -92 104 -92q103 0 103 92v428z" />
    <glyph glyph-name="V.SC" horiz-adv-x="440" 
d="M340 576h72l-153 -576h-78l-153 576h72l120 -485z" />
    <glyph glyph-name="W.SC" horiz-adv-x="668" 
d="M566 576h71l-115 -576h-86l-102 474l-102 -474h-86l-115 576h71l90 -503l106 503h71l106 -501z" />
    <glyph glyph-name="X.SC" horiz-adv-x="427" 
d="M33 576h77l103 -230l104 230h77l-134 -281l153 -295h-79l-121 242l-119 -242h-79l152 294z" />
    <glyph glyph-name="Y.SC" horiz-adv-x="442" 
d="M257 0h-72v206l-162 370h77l120 -296l122 296h77l-162 -368v-208z" />
    <glyph glyph-name="Z.SC" horiz-adv-x="400" 
d="M28 49l247 466h-233v61h318v-49l-245 -466h254v-61h-341v49z" />
    <glyph glyph-name="A.titl" horiz-adv-x="503" 
d="M93 0h-76l192 648h86l192 -648h-76l-44 153h-231zM251 562l-96 -342h193z" />
    <glyph glyph-name="B.titl" horiz-adv-x="487" 
d="M248 0h-175v648h159q88 0 136.5 -36.5t48.5 -111.5v-37q0 -82 -82 -109q109 -29 109 -132v-61q0 -80 -52 -120.5t-144 -40.5zM248 317h-99v-253h99q56 0 87.5 26.5t31.5 79.5v50q0 97 -119 97zM232 584h-83v-208h83q108 0 108 88v24q0 96 -108 96z" />
    <glyph glyph-name="C.titl" horiz-adv-x="507" 
d="M141 155q0 -51 28 -73.5t89 -22.5q117 0 117 96v79h73v-103q0 -66 -51 -103t-139 -37q-90 0 -141.5 37t-51.5 103v386q0 66 51.5 103t141.5 37q88 0 139 -37t51 -103v-103h-73v80q0 47 -31 71t-86 24q-117 0 -117 -95v-339z" />
    <glyph glyph-name="D.titl" horiz-adv-x="517" 
d="M73 0v648h145q123 0 180 -47t57 -138v-296q0 -87 -53.5 -127t-174.5 -40h-154zM383 178v280q0 57 -41 89.5t-124 32.5h-69v-512h78q78 0 117 24.5t39 85.5z" />
    <glyph glyph-name="E.titl" horiz-adv-x="434" 
d="M341 367v-64h-192v-239h246v-64h-323v648h323v-64h-246v-217h192z" />
    <glyph glyph-name="F.titl" horiz-adv-x="418" 
d="M149 0h-77v648h323v-64h-246v-244h192v-64h-192v-276z" />
    <glyph glyph-name="G.titl" horiz-adv-x="513" 
d="M455 0h-41l-15 45q-43 -54 -138 -54q-91 0 -143.5 37t-52.5 103v386q0 66 52.5 103t143.5 37q89 0 141.5 -37t52.5 -103v-103h-73v86q0 44 -32 66.5t-89 22.5q-119 0 -119 -89v-347q0 -49 28.5 -71.5t90.5 -22.5q117 0 121 89v108h-121v64h194v-320z" />
    <glyph glyph-name="H.titl" horiz-adv-x="527" 
d="M149 0h-77v648h77v-281h230v281h76v-648h-76v303h-230v-303z" />
    <glyph glyph-name="I.titl" horiz-adv-x="221" 
d="M149 0h-77v648h77v-648z" />
    <glyph glyph-name="J.titl" horiz-adv-x="490" 
d="M345 648h76v-493q0 -80 -50.5 -122t-145.5 -42q-89 0 -141 37t-52 103v91h73v-77q0 -42 32 -64t88 -22q120 0 120 99v490z" />
    <glyph glyph-name="K.titl" horiz-adv-x="465" 
d="M149 0h-77v648h77v-297l210 297h81l-219 -314l232 -334h-87l-217 311v-311z" />
    <glyph glyph-name="L.titl" horiz-adv-x="401" 
d="M383 64v-64h-311v648h77v-584h234z" />
    <glyph glyph-name="M.titl" horiz-adv-x="656" 
d="M355 223h-53l-160 301l3 -56v-468h-73v648h80l175 -334l178 334h78v-648h-73v467l2 54z" />
    <glyph glyph-name="N.titl" horiz-adv-x="548" 
d="M476 0h-62l-273 484l2 -24v-460h-71v648h61l273 -482l-1 30v452h71v-648z" />
    <glyph glyph-name="O.titl" horiz-adv-x="523" 
d="M261 657q93 0 145 -39.5t52 -109.5v-368q0 -70 -52 -109.5t-145 -39.5t-144.5 39t-51.5 110v368q0 71 51.5 110t144.5 39zM261 589q-62 0 -90.5 -24t-28.5 -80v-321q0 -56 28.5 -80.5t90.5 -24.5q63 0 92 24.5t29 80.5v321q0 56 -29 80t-92 24z" />
    <glyph glyph-name="P.titl" horiz-adv-x="460" 
d="M149 0h-77v648h150q106 0 153.5 -45t47.5 -131v-55q0 -165 -201 -165h-73v-252zM226 584h-77v-267h73q125 0 125 108v43q0 116 -121 116z" />
    <glyph glyph-name="Q.titl" horiz-adv-x="523" 
d="M261 657q93 0 145 -39.5t52 -109.5v-368q0 -54 -30.5 -90t-86.5 -50l95 -114l-54 -43l-121 148q-93 0 -144.5 39t-51.5 110v368q0 71 51.5 110t144.5 39zM261 589q-62 0 -90.5 -24t-28.5 -80v-321q0 -56 28.5 -80.5t90.5 -24.5q63 0 92 24.5t29 80.5v321q0 56 -29 80
t-92 24z" />
    <glyph glyph-name="R.titl" horiz-adv-x="476" 
d="M149 0h-77v648h144q106 0 153.5 -45t47.5 -131v-55q0 -124 -111 -155l155 -262h-86l-145 252h-81v-252zM220 584h-71v-267h67q126 0 126 108v43q0 116 -122 116z" />
    <glyph glyph-name="S.titl" 
d="M433 196v-46q0 -159 -175 -159h-48q-81 0 -121.5 31t-40.5 100v76h74v-54q0 -49 21 -67t70 -18h41q53 0 77.5 17.5t24.5 74.5v47q0 38 -19.5 61t-66.5 33l-89 18q-66 14 -95 47t-29 109v41q0 74 42 112t123 38h21q79 0 124 -34.5t45 -96.5v-71h-75v56q0 81 -94 81h-18
q-48 0 -70 -20t-22 -70v-32q0 -47 14.5 -64t60.5 -28l83 -18q79 -16 110.5 -54t31.5 -110z" />
    <glyph glyph-name="T.titl" horiz-adv-x="420" 
d="M248 0h-75v584h-152v64h378v-64h-151v-584z" />
    <glyph glyph-name="U.titl" horiz-adv-x="531" 
d="M386 648h76v-505q0 -72 -53 -112t-144 -40t-143.5 40.5t-52.5 111.5v505h77v-485q0 -104 119 -104q121 0 121 104v485z" />
    <glyph glyph-name="V.titl" horiz-adv-x="483" 
d="M379 648h77l-173 -648h-82l-174 648h77l137 -550z" />
    <glyph glyph-name="W.titl" horiz-adv-x="740" 
d="M634 648h76l-131 -648h-92l-117 541l-117 -541h-92l-131 648h75l105 -569l122 569h76l121 -568z" />
    <glyph glyph-name="X.titl" horiz-adv-x="464" 
d="M32 648h80l120 -262l119 262h81l-153 -318l174 -330h-83l-138 276l-138 -276h-82l172 329z" />
    <glyph glyph-name="Y.titl" horiz-adv-x="485" 
d="M281 0h-77v236l-181 412h80l139 -336l139 336h80l-180 -412v-236z" />
    <glyph glyph-name="Z.titl" horiz-adv-x="436" 
d="M27 50l281 534h-266v64h356v-50l-280 -534h288v-64h-379v50z" />
    <glyph glyph-name="Ecaron.SC" horiz-adv-x="400" 
d="M313 328v-61h-171v-206h218v-61h-291v576h291v-61h-218v-187h171zM247 611h-63l-123 154h80l75 -99l74 99h81z" />
    <glyph glyph-name="Rcaron.SC" horiz-adv-x="437" 
d="M142 0h-73v576h131q95 0 137.5 -40t42.5 -117v-51q0 -109 -97 -136l137 -232h-81l-128 222h-69v-222zM204 515h-62v-232h58q107 0 107 93v39q0 100 -103 100zM272 611h-63l-123 154h80l75 -99l74 99h81z" />
    <glyph glyph-name="Ycaron.SC" horiz-adv-x="442" 
d="M257 0h-72v206l-162 370h77l120 -296l122 296h77l-162 -368v-208zM251 611h-63l-123 154h80l75 -99l74 99h81z" />
    <glyph glyph-name="Aacute.SC" horiz-adv-x="459" 
d="M90 0h-72l170 576h83l170 -576h-73l-37 133h-204zM230 496l-84 -298h167zM252 609h-55l93 163h100z" />
    <glyph glyph-name="Iacute.SC" horiz-adv-x="211" 
d="M142 0h-73v576h73v-576zM129 609h-55l93 163h100z" />
    <glyph glyph-name="Eacute.SC.001" horiz-adv-x="400" 
d="M313 328v-61h-171v-206h218v-61h-291v576h291v-61h-218v-187h171zM240 609h-55l93 163h100z" />
    <glyph glyph-name="Tcaron.SC" horiz-adv-x="383" 
d="M228 0h-73v515h-133v61h339v-61h-133v-515zM221 611h-63l-123 154h80l75 -99l74 99h81z" />
    <glyph glyph-name="Dcaron.SC" horiz-adv-x="474" 
d="M69 0v576h134q110 0 160.5 -41.5t50.5 -123.5v-262q0 -77 -47.5 -113t-155.5 -36h-142zM344 160v246q0 106 -141 106h-61v-448h69q67 0 100 21.5t33 74.5zM272 611h-63l-123 154h80l75 -99l74 99h81z" />
    <glyph glyph-name="Scaron.SC" horiz-adv-x="435" 
d="M392 174v-39q0 -143 -157 -143h-43q-146 0 -146 117v67h71v-46q0 -43 18 -58.5t60 -15.5h37q46 0 66.5 15t20.5 65v40q0 33 -16.5 52t-58.5 28l-77 17q-60 13 -86 42.5t-26 98.5v35q0 66 38 100.5t110 34.5h18q71 0 111.5 -30.5t40.5 -86.5v-62h-71v47q0 71 -80 71h-17
q-41 0 -59.5 -17.5t-18.5 -61.5v-26q0 -41 12.5 -56t52.5 -24l72 -16q72 -16 100 -49t28 -99zM247 611h-63l-123 154h80l75 -99l74 99h81z" />
    <glyph glyph-name="Ccaron.SC" horiz-adv-x="463" 
d="M135 138q0 -43 24.5 -62.5t76.5 -19.5q99 0 99 82v70h70v-91q0 -59 -45.5 -92t-123.5 -33q-81 0 -127.5 33t-46.5 92v342q0 59 46.5 92t127.5 33q78 0 123.5 -33t45.5 -92v-91h-70v70q0 40 -26.5 61t-72.5 21q-101 0 -101 -82v-300zM265 611h-63l-123 154h80l75 -99
l74 99h81z" />
    <glyph glyph-name="Zcaron.SC" horiz-adv-x="400" 
d="M28 49l247 466h-233v61h318v-49l-245 -466h254v-61h-341v49zM228 611h-63l-123 154h80l75 -99l74 99h81z" />
    <glyph glyph-name="Uacute.SC" horiz-adv-x="483" 
d="M345 576h73v-447q0 -65 -47 -101t-129 -36t-129.5 36t-47.5 101v447h73v-428q0 -92 104 -92q103 0 103 92v428zM265 609h-55l93 163h100z" />
    <glyph glyph-name="Oacute.SC.001" 
d="M238 584q84 0 130 -35t46 -98v-326q0 -63 -46 -98t-130 -35q-83 0 -129.5 35t-46.5 98v326q0 63 46.5 98t129.5 35zM238 520q-54 0 -78.5 -21t-24.5 -69v-284q0 -48 24.5 -69t78.5 -21t79 21t25 69v284q0 48 -25 69t-79 21zM261 609h-55l93 163h100z" />
    <glyph glyph-name="Aogonek.SC" horiz-adv-x="459" 
d="M303 -132q0 74 77 132h-12l-37 133h-204l-37 -133h-72l170 576h83l170 -576h-10q-66 -72 -66 -123q0 -39 44 -39q33 0 61 19l16 -43q-41 -30 -91 -30q-92 0 -92 84zM230 496l-84 -298h167z" />
    <glyph glyph-name="Cacute.SC" horiz-adv-x="463" 
d="M135 138q0 -43 24.5 -62.5t76.5 -19.5q99 0 99 82v70h70v-91q0 -59 -45.5 -92t-123.5 -33q-81 0 -127.5 33t-46.5 92v342q0 59 46.5 92t127.5 33q78 0 123.5 -33t45.5 -92v-91h-70v70q0 40 -26.5 61t-72.5 21q-101 0 -101 -82v-300zM258 609h-55l93 163h100z" />
    <glyph glyph-name="Zdotaccent.SC" horiz-adv-x="400" 
d="M28 49l247 466h-233v61h318v-49l-245 -466h254v-61h-341v49zM242 609h-83v111h83v-111z" />
    <glyph glyph-name="Zacute.SC" horiz-adv-x="400" 
d="M28 49l247 466h-233v61h318v-49l-245 -466h254v-61h-341v49zM221 609h-55l93 163h100z" />
    <glyph glyph-name="Eogonek.SC" horiz-adv-x="400" 
d="M232 -132q0 74 77 132h-240v576h291v-61h-218v-187h171v-61h-171v-206h218v-61q-66 -72 -66 -123q0 -39 44 -39q33 0 61 19l16 -43q-41 -30 -91 -30q-92 0 -92 84z" />
    <glyph glyph-name="Lslash.SC" horiz-adv-x="417" 
d="M41 190v81l75 47v258h73v-212l163 102v-81l-163 -102v-222h208v-61h-281v237z" />
    <glyph glyph-name="Nacute.SC" horiz-adv-x="501" 
d="M432 0h-58l-239 421l1 -21v-400h-67v576h59l239 -421l-1 28v393h66v-576zM277 609h-55l93 163h100z" />
    <glyph glyph-name="Oacute.SC" 
d="M238 584q84 0 130 -35t46 -98v-326q0 -63 -46 -98t-130 -35q-83 0 -129.5 35t-46.5 98v326q0 63 46.5 98t129.5 35zM238 520q-54 0 -78.5 -21t-24.5 -69v-284q0 -48 24.5 -69t78.5 -21t79 21t25 69v284q0 48 -25 69t-79 21zM261 609h-55l93 163h100z" />
    <glyph glyph-name="Sacute.SC" horiz-adv-x="435" 
d="M392 174v-39q0 -143 -157 -143h-43q-146 0 -146 117v67h71v-46q0 -43 18 -58.5t60 -15.5h37q46 0 66.5 15t20.5 65v40q0 33 -16.5 52t-58.5 28l-77 17q-60 13 -86 42.5t-26 98.5v35q0 66 38 100.5t110 34.5h18q71 0 111.5 -30.5t40.5 -86.5v-62h-71v47q0 71 -80 71h-17
q-41 0 -59.5 -17.5t-18.5 -61.5v-26q0 -41 12.5 -56t52.5 -24l72 -16q72 -16 100 -49t28 -99zM240 609h-55l93 163h100z" />
    <glyph glyph-name="Agrave.SC" horiz-adv-x="459" 
d="M90 0h-72l170 576h83l170 -576h-73l-37 133h-204zM230 496l-84 -298h167zM268 609h-55l-145 163h100z" />
    <glyph glyph-name="Acircumflex.SC" horiz-adv-x="459" 
d="M90 0h-72l170 576h83l170 -576h-73l-37 133h-204zM230 496l-84 -298h167zM199 751h59l129 -142h-74l-84 87l-85 -87h-74z" />
    <glyph glyph-name="AE.SC" horiz-adv-x="673" 
d="M89 0h-80l302 576h322v-63h-218v-184h170v-63h-170v-203h218v-63h-293v133h-183zM190 197h150v292z" />
    <glyph glyph-name="Ccedilla.SC" horiz-adv-x="463" 
d="M135 138q0 -43 24.5 -62.5t76.5 -19.5q99 0 99 82v70h70v-91q0 -54 -38 -86.5t-105 -37.5v-42h3q46 0 67 -18.5t21 -59.5q0 -44 -25 -63t-87 -19h-51v45h55q29 0 40.5 7.5t11.5 27.5v4q0 20 -11.5 28.5t-39.5 8.5h-31v81q-72 5 -112.5 37t-40.5 87v342q0 59 46.5 92
t127.5 33q78 0 123.5 -33t45.5 -92v-91h-70v70q0 40 -26.5 61t-72.5 21q-101 0 -101 -82v-300z" />
    <glyph glyph-name="Egrave.SC" horiz-adv-x="400" 
d="M313 328v-61h-171v-206h218v-61h-291v576h291v-61h-218v-187h171zM256 609h-55l-145 163h100z" />
    <glyph glyph-name="Eacute.SC" horiz-adv-x="400" 
d="M313 328v-61h-171v-206h218v-61h-291v576h291v-61h-218v-187h171zM240 609h-55l93 163h100z" />
    <glyph glyph-name="Ecircumflex.SC" horiz-adv-x="400" 
d="M313 328v-61h-171v-206h218v-61h-291v576h291v-61h-218v-187h171zM187 751h59l129 -142h-74l-84 87l-85 -87h-74z" />
    <glyph glyph-name="Edieresis.SC" horiz-adv-x="400" 
d="M313 328v-61h-171v-206h218v-61h-291v576h291v-61h-218v-187h171zM164 609h-86v102h86v-102zM356 609h-86v102h86v-102z" />
    <glyph glyph-name="Icircumflex.SC" horiz-adv-x="211" 
d="M142 0h-73v576h73v-576zM75 751h59l129 -142h-74l-84 87l-85 -87h-74z" />
    <glyph glyph-name="Idieresis.SC" horiz-adv-x="211" 
d="M142 0h-73v576h73v-576zM52 609h-86v102h86v-102zM244 609h-86v102h86v-102z" />
    <glyph glyph-name="Ocircumflex.SC" 
d="M238 584q84 0 130 -35t46 -98v-326q0 -63 -46 -98t-130 -35q-83 0 -129.5 35t-46.5 98v326q0 63 46.5 98t129.5 35zM238 520q-54 0 -78.5 -21t-24.5 -69v-284q0 -48 24.5 -69t78.5 -21t79 21t25 69v284q0 48 -25 69t-79 21zM208 751h59l129 -142h-74l-84 87l-85 -87h-74z
" />
    <glyph glyph-name="OE.SC" horiz-adv-x="675" 
d="M634 63v-63h-293v19q-37 -27 -102 -27q-83 0 -130 35t-47 98v326q0 63 47 98t130 35q62 0 102 -27v19h293v-63h-217v-184h170v-63h-170v-203h217zM239 517q-52 0 -76.5 -20.5t-24.5 -67.5v-282q0 -47 24.5 -67.5t76.5 -20.5q53 0 77.5 20.5t24.5 67.5v282
q0 47 -24.5 67.5t-77.5 20.5z" />
    <glyph glyph-name="Ugrave.SC" horiz-adv-x="483" 
d="M345 576h73v-447q0 -65 -47 -101t-129 -36t-129.5 36t-47.5 101v447h73v-428q0 -92 104 -92q103 0 103 92v428zM281 609h-55l-145 163h100z" />
    <glyph glyph-name="Ucircumflex.SC" horiz-adv-x="483" 
d="M345 576h73v-447q0 -65 -47 -101t-129 -36t-129.5 36t-47.5 101v447h73v-428q0 -92 104 -92q103 0 103 92v428zM212 751h59l129 -142h-74l-84 87l-85 -87h-74z" />
    <glyph glyph-name="Udieresis.SC.001" horiz-adv-x="483" 
d="M345 576h73v-447q0 -65 -47 -101t-129 -36t-129.5 36t-47.5 101v447h73v-428q0 -92 104 -92q103 0 103 92v428zM189 609h-86v102h86v-102zM381 609h-86v102h86v-102z" />
    <glyph glyph-name="Ydieresis.SC" horiz-adv-x="442" 
d="M257 0h-72v206l-162 370h77l120 -296l122 296h77l-162 -368v-208zM167 609h-86v102h86v-102zM359 609h-86v102h86v-102z" />
    <glyph glyph-name="Adieresis.SC" horiz-adv-x="459" 
d="M90 0h-72l170 576h83l170 -576h-73l-37 133h-204zM230 496l-84 -298h167zM176 609h-86v102h86v-102zM368 609h-86v102h86v-102z" />
    <glyph glyph-name="Odieresis.SC" 
d="M238 584q84 0 130 -35t46 -98v-326q0 -63 -46 -98t-130 -35q-83 0 -129.5 35t-46.5 98v326q0 63 46.5 98t129.5 35zM238 520q-54 0 -78.5 -21t-24.5 -69v-284q0 -48 24.5 -69t78.5 -21t79 21t25 69v284q0 48 -25 69t-79 21zM185 609h-86v102h86v-102zM377 609h-86v102h86
v-102z" />
    <glyph glyph-name="Udieresis.SC" horiz-adv-x="483" 
d="M345 576h73v-447q0 -65 -47 -101t-129 -36t-129.5 36t-47.5 101v447h73v-428q0 -92 104 -92q103 0 103 92v428zM189 609h-86v102h86v-102zM381 609h-86v102h86v-102z" />
    <glyph glyph-name="a.sm" horiz-adv-x="356" 
d="M33 92v15q0 99 100 99q50 0 95 -15v81q0 14 -3 24t-15.5 18.5t-35.5 8.5q-54 0 -54 -51v-17h-67v31q0 46 30 72.5t91 26.5q64 0 94.5 -26.5t30.5 -72.5v-286h-60l-5 23q-49 -30 -103 -30q-98 0 -98 99zM154 41q42 0 74 21v80q-30 15 -73 15q-52 0 -52 -49v-17
q0 -50 51 -50z" />
    <glyph glyph-name="o.sm" horiz-adv-x="364" 
d="M316 280v-182q0 -50 -35 -77.5t-99 -27.5t-99 27.5t-35 77.5v182q0 50 35 77.5t99 27.5t99 -27.5t35 -77.5zM117 262v-147q0 -59 65 -59q64 0 64 59v147q0 60 -64 60q-65 0 -65 -60z" />
    <glyph glyph-name="zero.denominator" horiz-adv-x="405" 
d="M354 396v-288q0 -54 -40.5 -84.5t-110.5 -30.5t-111 30.5t-41 84.5v288q0 54 41 84.5t111 30.5t110.5 -30.5t40.5 -84.5zM203 57q78 0 78 64v262q0 64 -78 64q-79 0 -79 -64v-262q0 -64 79 -64z" />
    <glyph glyph-name="one.denominator" horiz-adv-x="231" 
d="M174 0h-70v424l-81 -31v64l102 47h49v-504z" />
    <glyph glyph-name="two.denominator" horiz-adv-x="370" 
d="M334 60v-60h-295v31q0 132 84 195q11 9 53.5 35.5t60.5 48.5t18 55v22q0 63 -63 63h-16q-63 0 -63 -55v-46h-69v60q0 49 35 75.5t100 26.5h13q66 0 100.5 -30t34.5 -87v-29q0 -52 -26 -85.5t-100 -79.5q-86 -52 -93 -140h226z" />
    <glyph glyph-name="three.denominator" horiz-adv-x="377" 
d="M141 236v55h45q70 0 70 64v36q0 31 -14.5 45t-45.5 14h-13q-65 0 -65 -55v-40h-66v57q0 47 34 73t98 26h13q130 0 130 -113v-44q0 -61 -61 -81q68 -20 68 -95v-57q0 -68 -34.5 -98t-102.5 -30h-33q-65 0 -96.5 24t-31.5 78v56h67v-38q0 -56 65 -56h29q69 0 69 64v55
q0 60 -68 60h-57z" />
    <glyph glyph-name="four.denominator" horiz-adv-x="372" 
d="M286 0h-72v101h-193v47l204 356h61v-343h60v-60h-60v-101zM96 161h118v213z" />
    <glyph glyph-name="five.denominator" horiz-adv-x="364" 
d="M310 504v-60h-180l-3 -130l61 1q137 1 137 -127v-67q0 -68 -34.5 -98t-101.5 -30h-24q-66 0 -97.5 25t-31.5 81v53h68v-29q0 -38 15.5 -52t47.5 -14h24q33 0 49 14.5t16 50.5v65q0 65 -69 65h-129l7 252h245z" />
    <glyph glyph-name="six.denominator" horiz-adv-x="392" 
d="M214 306q65 0 99 -26.5t34 -75.5v-101q0 -52 -40 -81t-110 -29q-69 0 -107.5 28.5t-38.5 80.5v300q0 51 40 80t109 29q68 0 107.5 -28t39.5 -78v-51h-72v35q0 58 -75 58q-76 0 -76 -62v-107q33 28 90 28zM203 246q-76 0 -79 -56v-71q0 -62 74 -62q77 0 77 62v65
q0 62 -72 62z" />
    <glyph glyph-name="seven.denominator" horiz-adv-x="321" 
d="M22 444v60h279v-50l-176 -454h-72l171 444h-202z" />
    <glyph glyph-name="eight.denominator" horiz-adv-x="393" 
d="M197 511q66 0 104 -28t38 -78v-50q0 -63 -56 -87q67 -26 67 -91v-75q0 -51 -41 -80t-112 -29q-72 0 -113 29t-41 80v75q0 65 67 91q-56 25 -56 87v50q0 51 38 78.5t105 27.5zM197 242q-82 0 -82 -64v-65q0 -63 82 -63t82 63v65q0 64 -82 64zM197 454q-74 0 -74 -56v-47
q0 -55 74 -55t74 55v47q0 56 -74 56z" />
    <glyph glyph-name="nine.denominator" horiz-adv-x="392" 
d="M178 197q-65 0 -99 27t-34 76v101q0 52 40 81t109 29q70 0 108.5 -28.5t38.5 -80.5v-300q0 -51 -40 -80t-109 -29q-68 0 -107.5 28t-39.5 78v51h72v-35q0 -58 75 -58q76 0 76 62v106q-34 -28 -90 -28zM268 385q0 62 -75 62q-76 0 -76 -62v-65q0 -62 72 -62q74 0 79 56v71
z" />
    <glyph glyph-name="zero.numerator" horiz-adv-x="405" 
d="M354 616v-288q0 -54 -40.5 -84.5t-110.5 -30.5t-111 30.5t-41 84.5v288q0 54 41 84.5t111 30.5t110.5 -30.5t40.5 -84.5zM203 277q78 0 78 64v262q0 64 -78 64q-79 0 -79 -64v-262q0 -64 79 -64z" />
    <glyph glyph-name="one.numerator" horiz-adv-x="231" 
d="M174 220h-70v424l-81 -31v64l102 47h49v-504z" />
    <glyph glyph-name="two.numerator" horiz-adv-x="370" 
d="M334 280v-60h-295v31q0 132 84 195q11 9 53.5 35.5t60.5 48.5t18 55v22q0 63 -63 63h-16q-63 0 -63 -55v-46h-69v60q0 49 35 75.5t100 26.5h13q66 0 100.5 -30t34.5 -87v-29q0 -52 -26 -85.5t-100 -79.5q-86 -52 -93 -140h226z" />
    <glyph glyph-name="three.numerator" horiz-adv-x="377" 
d="M141 456v55h45q70 0 70 64v36q0 31 -14.5 45t-45.5 14h-13q-65 0 -65 -55v-40h-66v57q0 47 34 73t98 26h13q130 0 130 -113v-44q0 -61 -61 -81q68 -20 68 -95v-57q0 -68 -34.5 -98t-102.5 -30h-33q-65 0 -96.5 24t-31.5 78v56h67v-38q0 -56 65 -56h29q69 0 69 64v55
q0 60 -68 60h-57z" />
    <glyph glyph-name="four.numerator" horiz-adv-x="372" 
d="M286 220h-72v101h-193v47l204 356h61v-343h60v-60h-60v-101zM96 381h118v213z" />
    <glyph glyph-name="five.numerator" horiz-adv-x="364" 
d="M310 724v-60h-180l-3 -130l61 1q137 1 137 -127v-67q0 -68 -34.5 -98t-101.5 -30h-24q-66 0 -97.5 25t-31.5 81v53h68v-29q0 -38 15.5 -52t47.5 -14h24q33 0 49 14.5t16 50.5v65q0 65 -69 65h-129l7 252h245z" />
    <glyph glyph-name="six.numerator" horiz-adv-x="392" 
d="M214 526q65 0 99 -26.5t34 -75.5v-101q0 -52 -40 -81t-110 -29q-69 0 -107.5 28.5t-38.5 80.5v300q0 51 40 80t109 29q68 0 107.5 -28t39.5 -78v-51h-72v35q0 58 -75 58q-76 0 -76 -62v-107q33 28 90 28zM203 466q-76 0 -79 -56v-71q0 -62 74 -62q77 0 77 62v65
q0 62 -72 62z" />
    <glyph glyph-name="seven.numerator" horiz-adv-x="321" 
d="M22 664v60h279v-50l-176 -454h-72l171 444h-202z" />
    <glyph glyph-name="eight.numerator" horiz-adv-x="393" 
d="M197 731q66 0 104 -28t38 -78v-50q0 -63 -56 -87q67 -26 67 -91v-75q0 -51 -41 -80t-112 -29q-72 0 -113 29t-41 80v75q0 65 67 91q-56 25 -56 87v50q0 51 38 78.5t105 27.5zM197 462q-82 0 -82 -64v-65q0 -63 82 -63t82 63v65q0 64 -82 64zM197 674q-74 0 -74 -56v-47
q0 -55 74 -55t74 55v47q0 56 -74 56z" />
    <glyph glyph-name="nine.numerator" horiz-adv-x="392" 
d="M178 417q-65 0 -99 27t-34 76v101q0 52 40 81t109 29q70 0 108.5 -28.5t38.5 -80.5v-300q0 -51 -40 -80t-109 -29q-68 0 -107.5 28t-39.5 78v51h72v-35q0 -58 75 -58q76 0 76 62v106q-34 -28 -90 -28zM268 605q0 62 -75 62q-76 0 -76 -62v-65q0 -62 72 -62q74 0 79 56v71
z" />
    <glyph glyph-name="a.uni" horiz-adv-x="557" 
d="M41 169v37q0 183 182 183q89 0 180 -33v203q0 40 -26.5 68.5t-96.5 28.5q-71 0 -97 -27t-26 -70v-55h-78v64q0 160 200 160q108 0 157 -45t49 -115v-568h-65l-9 43q-94 -56 -197 -56q-86 0 -129.5 47t-43.5 135zM234 56q41 0 88.5 13.5t80.5 35.5v186q-65 34 -166 34
q-58 0 -84.5 -27.5t-26.5 -88.5v-37q0 -116 108 -116z" />
    <glyph glyph-name="e.uni" horiz-adv-x="538" 
d="M144 180q0 -62 30.5 -90.5t93.5 -28.5q133 0 133 119v59h76v-69q0 -87 -55 -135t-154 -48q-95 0 -147.5 47.5t-52.5 135.5v378q0 88 52 135t148 47q100 0 154.5 -47t54.5 -135v-223h-333v-145zM144 538v-149h257v149q0 61 -35 91t-98 30t-93.5 -29.5t-30.5 -91.5z" />
    <glyph glyph-name="four.alt" horiz-adv-x="474" 
d="M363 0h-80v124h-259v52l271 544h68v-527h81v-69h-81v-124zM106 193h177v366z" />
    <glyph glyph-name="a.alt" horiz-adv-x="455" 
d="M37 129v26q0 139 140 139q74 0 138 -23v131q0 42 -21 62t-67 20q-47 0 -67.5 -19t-20.5 -63v-27h-73v36q0 139 160 139q86 0 125.5 -34.5t39.5 -104.5v-415h-62l-7 36q-71 -42 -150 -42q-67 0 -101 36t-34 103zM195 53q71 0 120 34v128q-47 22 -118 22q-42 0 -61 -19
t-19 -61v-25q0 -79 78 -79z" />
    </font>
</defs>
</svg>
